<?xml version="1.0" encoding="UTF-8" standalone="no"?>
<!-- Created with Inkscape (http://www.inkscape.org/) -->

<svg
   version="1.1"
   id="svg4062"
   xml:space="preserve"
   width="682.66669"
   height="682.66669"
   viewBox="0 0 682.66669 682.66669"
   xmlns="http://www.w3.org/2000/svg"
   xmlns:svg="http://www.w3.org/2000/svg"><defs
     id="defs4066"><clipPath
       clipPathUnits="userSpaceOnUse"
       id="clipPath4076"><path
         d="M 0,512 H 512 V 0 H 0 Z"
         id="path4074" /></clipPath></defs><g
     id="g4068"
     transform="matrix(1.3333333,0,0,-1.3333333,0,682.66667)"><g
       id="g4070"><g
         id="g4072"
         clip-path="url(#clipPath4076)"><g
           id="g4078"
           transform="translate(414.9775,264.0552)"><path
             d="m 0,0 v -164.176 c 0,-4.99 -2.734,-9.58 -7.125,-11.958 l -145.37,-78.765 c -4.046,-2.19 -8.925,-2.19 -12.959,0 l -145.382,78.765 c -4.379,2.378 -7.113,6.968 -7.113,11.958 V 0 Z"
             style="fill:#a8e7ef;fill-opacity:1;fill-rule:nonzero;stroke:none"
             id="path4080" /></g><g
           id="g4082"
           transform="translate(414.9775,234.5142)"><path
             d="m 0,0 v -55.859 l -84,-45.512 c -3.334,-1.8 -7.258,-2.133 -10.848,-0.922 l -64.127,21.717 V 0 Z"
             style="fill:#6fd9e6;fill-opacity:1;fill-rule:nonzero;stroke:none"
             id="path4084" /></g><g
           id="g4086"
           transform="translate(386.2344,264.0542)"><path
             d="m 0,0 v -187.847 l 21.62,11.715 c 4.389,2.378 7.123,6.968 7.123,11.96 L 28.743,0 Z"
             style="fill:#6fd9e6;fill-opacity:1;fill-rule:nonzero;stroke:none"
             id="path4088" /></g><g
           id="g4090"
           transform="translate(256.0029,264.0552)"><path
             d="m 0,0 v -256.555 c -2.234,0 -4.457,0.544 -6.491,1.645 l -145.37,78.776 c -4.379,2.389 -7.114,6.968 -7.114,11.958 V 0 Z"
             style="fill:#6fd9e6;fill-opacity:1;fill-rule:nonzero;stroke:none"
             id="path4092" /></g><g
           id="g4094"
           transform="translate(256.0029,234.5142)"><path
             d="m 0,0 v -80.576 l -64.139,-21.717 c -3.579,-1.211 -7.513,-0.878 -10.837,0.922 l -83.999,45.512 V 0 Z"
             style="fill:#3ad1e0;fill-opacity:1;fill-rule:nonzero;stroke:none"
             id="path4096" /></g><g
           id="g4098"
           transform="translate(227.8047,264.0547)"><path
             d="m 0,0 v -243.14 l 21.712,-11.765 c 2.026,-1.102 4.257,-1.646 6.488,-1.646 V 0 Z"
             style="fill:#3ad1e0;fill-opacity:1;fill-rule:nonzero;stroke:none"
             id="path4100" /></g><g
           id="g4102"
           transform="translate(97.0234,132.8374)"><path
             d="m 0,0 v -32.956 c 0,-4.991 2.733,-9.582 7.122,-11.96 l 145.374,-78.766 c 4.043,-2.191 8.918,-2.191 12.961,0 l 145.374,78.766 c 4.389,2.378 7.122,6.969 7.122,11.96 V 131.217 H 0 V 37.026"
             style="fill:none;stroke:#000000;stroke-width:15;stroke-linecap:round;stroke-linejoin:round;stroke-miterlimit:10;stroke-dasharray:none;stroke-opacity:1"
             id="path4104" /></g><g
           id="g4106"
           transform="translate(256,177.9175)"><path
             d="M 0,0 V -165.472"
             style="fill:none;stroke:#000000;stroke-width:15;stroke-linecap:round;stroke-linejoin:round;stroke-miterlimit:10;stroke-dasharray:none;stroke-opacity:1"
             id="path4108" /></g><g
           id="g4110"
           transform="translate(256,350.1909)"><path
             d="M 0,0 -158.978,-86.137 0,-172.273 158.978,-86.137 Z"
             style="fill:#766e6f;fill-opacity:1;fill-rule:nonzero;stroke:none"
             id="path4112" /></g><g
           id="g4114"
           transform="translate(382.2686,246.3281)"><path
             d="M 0,0 -126.266,-68.406 -252.532,0 l 82.711,44.817 c 27.171,14.723 59.94,14.723 87.111,0 z"
             style="fill:#5b5555;fill-opacity:1;fill-rule:nonzero;stroke:none"
             id="path4116" /></g><g
           id="g4118"
           transform="translate(256,350.1909)"><path
             d="M 0,0 -158.978,-86.137 0,-172.273 158.978,-86.137 Z"
             style="fill:none;stroke:#000000;stroke-width:15;stroke-linecap:round;stroke-linejoin:round;stroke-miterlimit:10;stroke-dasharray:none;stroke-opacity:1"
             id="path4120" /></g><g
           id="g4122"
           transform="translate(465.5488,322.0747)"><path
             d="m 0,0 -50.571,-58.021 -158.978,86.137 52.574,60.315 c 2.092,2.4 5.569,3.027 8.368,1.511 L -1.887,10.449 C 1.943,8.374 2.862,3.284 0,0"
             style="fill:#a8e7ef;fill-opacity:1;fill-rule:nonzero;stroke:none"
             id="path4124" /></g><g
           id="g4126"
           transform="translate(326.2314,389.0278)"><path
             d="m 0,0 c 0,-11.858 -9.614,-21.483 -21.473,-21.483 -9.634,0 -17.783,6.339 -20.503,15.064 L -17.914,21.18 C -7.744,19.481 0,10.646 0,0"
             style="fill:#6fd9e6;fill-opacity:1;fill-rule:nonzero;stroke:none"
             id="path4128" /></g><g
           id="g4130"
           transform="translate(375.2998,380.3984)"><path
             d="m 0,0 -58.358,31.619 c -2.799,1.516 -6.276,0.888 -8.368,-1.512 l -52.574,-60.315 158.977,-86.136 50.572,58.02 c 2.862,3.284 1.943,8.374 -1.887,10.449 l -55.754,30.208"
             style="fill:none;stroke:#000000;stroke-width:15;stroke-linecap:round;stroke-linejoin:round;stroke-miterlimit:10;stroke-dasharray:none;stroke-opacity:1"
             id="path4132" /></g><g
           id="g4134"
           transform="translate(46.4512,322.0747)"><path
             d="m 0,0 50.571,-58.021 158.978,86.137 -52.574,60.315 c -2.092,2.4 -5.569,3.027 -8.368,1.511 L 1.887,10.449 C -1.943,8.374 -2.862,3.284 0,0"
             style="fill:#d4f2f6;fill-opacity:1;fill-rule:nonzero;stroke:none"
             id="path4136" /></g><g
           id="g4138"
           transform="translate(165.9316,377.2803)"><path
             d="m 0,0 c 0,-14.932 -12.111,-27.033 -27.043,-27.033 -11.616,0 -21.523,7.329 -25.345,17.611 l 47.08,25.506 C -1.971,11.596 0,6.025 0,0"
             style="fill:#a8e7ef;fill-opacity:1;fill-rule:nonzero;stroke:none"
             id="path4140" /></g><g
           id="g4142"
           transform="translate(46.4512,322.0747)"><path
             d="m 0,0 50.571,-58.021 158.978,86.137 -52.574,60.315 c -2.092,2.4 -5.569,3.027 -8.368,1.511 L 1.887,10.449 C -1.943,8.374 -2.862,3.284 0,0 Z"
             style="fill:none;stroke:#000000;stroke-width:15;stroke-linecap:round;stroke-linejoin:round;stroke-miterlimit:10;stroke-dasharray:none;stroke-opacity:1"
             id="path4144" /></g><g
           id="g4146"
           transform="translate(42.0283,245.4316)"><path
             d="m 0,0 54.994,18.623 158.978,-86.137 -64.133,-21.715 c -3.585,-1.213 -7.515,-0.878 -10.843,0.925 L -1.059,-12.422 C -6.279,-9.594 -5.624,-1.904 0,0"
             style="fill:#a8e7ef;fill-opacity:1;fill-rule:nonzero;stroke:none"
             id="path4148" /></g><g
           id="g4150"
           transform="translate(256,177.9175)"><path
             d="m 0,0 -64.133,-21.714 c -3.585,-1.214 -7.514,-0.879 -10.843,0.924 L -215.03,55.092 c -5.221,2.828 -4.566,10.518 1.058,12.422 l 54.994,18.623 z"
             style="fill:none;stroke:#000000;stroke-width:15;stroke-linecap:round;stroke-linejoin:round;stroke-miterlimit:10;stroke-dasharray:none;stroke-opacity:1"
             id="path4152" /></g><g
           id="g4154"
           transform="translate(469.9717,245.4316)"><path
             d="m 0,0 -54.994,18.623 -158.978,-86.137 64.133,-21.715 c 3.585,-1.213 7.515,-0.878 10.843,0.925 L 1.059,-12.422 C 6.279,-9.594 5.624,-1.904 0,0"
             style="fill:#d4f2f6;fill-opacity:1;fill-rule:nonzero;stroke:none"
             id="path4156" /></g><g
           id="g4158"
           transform="translate(469.9717,245.4316)"><path
             d="m 0,0 -54.994,18.623 -158.978,-86.137 64.133,-21.715 c 3.585,-1.213 7.515,-0.878 10.843,0.925 L 1.059,-12.422 C 6.279,-9.594 5.624,-1.904 0,0 Z"
             style="fill:none;stroke:#000000;stroke-width:15;stroke-linecap:round;stroke-linejoin:round;stroke-miterlimit:10;stroke-dasharray:none;stroke-opacity:1"
             id="path4160" /></g><g
           id="g4162"
           transform="translate(298.458,71.3999)"><path
             d="M 0,0 17.205,9.322"
             style="fill:none;stroke:#000000;stroke-width:15;stroke-linecap:round;stroke-linejoin:round;stroke-miterlimit:10;stroke-dasharray:none;stroke-opacity:1"
             id="path4164" /></g><g
           id="g4166"
           transform="translate(195.9805,477.125)"><path
             d="M 0,0 -22.981,-22.981"
             style="fill:none;stroke:#000000;stroke-width:15;stroke-linecap:round;stroke-linejoin:round;stroke-miterlimit:10;stroke-dasharray:none;stroke-opacity:1"
             id="path4168" /></g><g
           id="g4170"
           transform="translate(195.9805,454.1436)"><path
             d="M 0,0 -22.981,22.981"
             style="fill:none;stroke:#000000;stroke-width:15;stroke-linecap:round;stroke-linejoin:round;stroke-miterlimit:10;stroke-dasharray:none;stroke-opacity:1"
             id="path4172" /></g><g
           id="g4174"
           transform="translate(111.8516,404.3198)"><path
             d="M 0,0 C 0,14.933 12.105,27.039 27.038,27.039 41.972,27.039 54.077,14.933 54.077,0 54.077,-14.933 41.972,-27.039 27.038,-27.039 12.105,-27.039 0,-14.933 0,0"
             style="fill:#bcea73;fill-opacity:1;fill-rule:nonzero;stroke:none"
             id="path4176" /></g><g
           id="g4178"
           transform="translate(125.1758,381.0195)"><path
             d="m 0,0 c 10.614,2.447 18.522,11.948 18.522,23.304 0,11.343 -7.895,20.857 -18.509,23.303 4.015,2.373 8.698,3.732 13.703,3.732 14.926,0 27.035,-12.109 27.035,-27.035 C 40.751,8.365 28.642,-3.744 13.716,-3.744 8.711,-3.744 4.016,-2.385 0,0"
             style="fill:#99d53b;fill-opacity:1;fill-rule:nonzero;stroke:none"
             id="path4180" /></g><g
           id="g4182"
           transform="translate(111.8516,404.3198)"><path
             d="M 0,0 C 0,14.933 12.105,27.039 27.038,27.039 41.972,27.039 54.077,14.933 54.077,0 54.077,-14.933 41.972,-27.039 27.038,-27.039 12.105,-27.039 0,-14.933 0,0"
             style="fill:none;stroke:#000000;stroke-width:15;stroke-linecap:round;stroke-linejoin:round;stroke-miterlimit:10;stroke-dasharray:none;stroke-opacity:1"
             id="path4184" /></g><g
           id="g4186"
           transform="translate(418.0205,427.9946)"><path
             d="M 0,0 -22.981,-22.981"
             style="fill:none;stroke:#000000;stroke-width:15;stroke-linecap:round;stroke-linejoin:round;stroke-miterlimit:10;stroke-dasharray:none;stroke-opacity:1"
             id="path4188" /></g><g
           id="g4190"
           transform="translate(418.0205,405.0132)"><path
             d="M 0,0 -22.981,22.981"
             style="fill:none;stroke:#000000;stroke-width:15;stroke-linecap:round;stroke-linejoin:round;stroke-miterlimit:10;stroke-dasharray:none;stroke-opacity:1"
             id="path4192" /></g><g
           id="g4194"
           transform="translate(326.2324,410.5034)"><path
             d="m 0,0 c 0,-11.862 -9.615,-21.478 -21.478,-21.478 -11.861,0 -21.476,9.616 -21.476,21.478 0,11.861 9.615,21.477 21.476,21.477 C -9.615,21.477 0,11.861 0,0"
             style="fill:#64b9fc;fill-opacity:1;fill-rule:nonzero;stroke:none"
             id="path4196" /></g><g
           id="g4198"
           transform="translate(326.2305,410.5059)"><path
             d="m 0,0 c 0,-11.866 -9.618,-21.484 -21.475,-21.484 -3.974,0 -7.704,1.079 -10.893,2.974 8.431,1.943 14.712,9.49 14.712,18.51 0,9.01 -6.272,16.567 -14.702,18.511 3.189,1.884 6.909,2.964 10.883,2.964 C -9.618,21.475 0,11.856 0,0"
             style="fill:#31a7fb;fill-opacity:1;fill-rule:nonzero;stroke:none"
             id="path4200" /></g><g
           id="g4202"
           transform="translate(326.2324,410.5034)"><path
             d="m 0,0 c 0,-11.862 -9.615,-21.478 -21.478,-21.478 -11.861,0 -21.476,9.616 -21.476,21.478 0,11.861 9.615,21.477 21.476,21.477 C -9.615,21.477 0,11.861 0,0 Z"
             style="fill:none;stroke:#000000;stroke-width:15;stroke-linecap:round;stroke-linejoin:round;stroke-miterlimit:10;stroke-dasharray:none;stroke-opacity:1"
             id="path4204" /></g><g
           id="g4206"
           transform="translate(373.5049,479.3242)"><path
             d="m 0,0 c 0,-13.904 -11.271,-25.175 -25.176,-25.175 -13.903,0 -25.176,11.271 -25.176,25.175 0,13.904 11.273,25.176 25.176,25.176 C -11.271,25.176 0,13.904 0,0"
             style="fill:#a8e7ef;fill-opacity:1;fill-rule:nonzero;stroke:none"
             id="path4208" /></g><g
           id="g4210"
           transform="translate(373.5029,479.3271)"><path
             d="m 0,0 c 0,-13.909 -11.274,-25.184 -25.172,-25.184 -4.66,0 -9.031,1.266 -12.77,3.486 9.882,2.278 17.245,11.125 17.245,21.698 0,10.562 -7.352,19.42 -17.234,21.698 3.739,2.209 8.099,3.475 12.759,3.475 C -11.274,25.173 0,13.898 0,0"
             style="fill:#6fd9e6;fill-opacity:1;fill-rule:nonzero;stroke:none"
             id="path4212" /></g><g
           id="g4214"
           transform="translate(373.5049,479.3242)"><path
             d="m 0,0 c 0,-13.904 -11.271,-25.175 -25.176,-25.175 -13.903,0 -25.176,11.271 -25.176,25.175 0,13.904 11.273,25.176 25.176,25.176 C -11.271,25.176 0,13.904 0,0 Z"
             style="fill:none;stroke:#000000;stroke-width:15;stroke-linecap:round;stroke-linejoin:round;stroke-miterlimit:10;stroke-dasharray:none;stroke-opacity:1"
             id="path4216" /></g><g
           id="g4218"
           transform="translate(324.6699,239.3501)"><path
             d="m 0,0 c 0,-9.69 -2.01,-18.92 -5.64,-27.28 l -63.03,-34.15 -63.03,34.15 c -3.63,8.36 -5.64,17.59 -5.64,27.28 0,37.92 30.75,68.67 68.67,68.67 C -30.75,68.67 0,37.92 0,0"
             style="fill:#a3e440;fill-opacity:1;fill-rule:nonzero;stroke:none"
             id="path4220" /></g><g
           id="g4222"
           transform="translate(324.6602,239.3501)"><path
             d="M 0,0 C 0,-9.69 -2.01,-18.92 -5.63,-27.28 L -50,-51.32 c 14.14,12.58 23.05,30.91 23.05,51.32 0,33.31 -23.71,61.07 -55.18,67.34 4.359,0.87 8.859,1.32 13.47,1.32 C -30.74,68.66 0,37.93 0,0"
             style="fill:#99d53b;fill-opacity:1;fill-rule:nonzero;stroke:none"
             id="path4224" /></g><g
           id="g4226"
           transform="translate(237.583,305.501)"><path
             d="m 0,0 c -28.975,-8.053 -50.253,-34.613 -50.253,-66.151 0,-9.69 2.01,-18.92 5.64,-27.28 l 63.03,-34.15 63.03,34.15 c 3.63,8.36 5.64,17.59 5.64,27.28 0,31.468 -21.184,57.979 -50.061,66.096"
             style="fill:none;stroke:#000000;stroke-width:15;stroke-linecap:round;stroke-linejoin:round;stroke-miterlimit:10;stroke-dasharray:none;stroke-opacity:1"
             id="path4228" /></g><g
           id="g4230"
           transform="translate(269.6484,218.9106)"><path
             d="M 0,0 C -3.641,3.107 -8.748,5.057 -14.422,5.074 -20.096,5.091 -25.215,3.172 -28.874,0.086"
             style="fill:none;stroke:#000000;stroke-width:15;stroke-linecap:round;stroke-linejoin:round;stroke-miterlimit:10;stroke-dasharray:none;stroke-opacity:1"
             id="path4232" /></g><g
           id="g4234"
           transform="translate(288.6279,246.1963)"><path
             d="M 0,0 H 0.071"
             style="fill:none;stroke:#000000;stroke-width:15;stroke-linecap:round;stroke-linejoin:round;stroke-miterlimit:10;stroke-dasharray:none;stroke-opacity:1"
             id="path4236" /></g><g
           id="g4238"
           transform="translate(223.3008,246.1963)"><path
             d="M 0,0 H 0.07"
             style="fill:none;stroke:#000000;stroke-width:15;stroke-linecap:round;stroke-linejoin:round;stroke-miterlimit:10;stroke-dasharray:none;stroke-opacity:1"
             id="path4240" /></g><g
           id="g4242"
           transform="translate(288.6201,246.1963)"><path
             d="M 0,0 H 0.07"
             style="fill:none;stroke:#000000;stroke-width:15;stroke-linecap:round;stroke-linejoin:round;stroke-miterlimit:10;stroke-dasharray:none;stroke-opacity:1"
             id="path4244" /></g></g></g></g></svg>
