<svg width="82" height="82" viewBox="0 0 82 82" fill="none" xmlns="http://www.w3.org/2000/svg">
<g clip-path="url(#clip0_1002_2542)">
<path d="M29.9492 31.0545C31.1984 26.1056 37.2684 24.3119 41.016 28.556C42.7137 26.7142 44.7637 25.7373 47.2941 26.3298C49.8246 26.9064 51.3301 28.6041 51.9867 30.8943C53.9406 31.2306 55.8465 31.4068 57.6723 31.9193C66.8332 34.4498 72.9512 43.4986 71.9101 52.8838C70.9012 62.0607 64.1906 69.1236 55.0297 70.517C50.257 71.2377 45.7726 70.2767 41.6726 67.7302C41.1762 67.4259 40.8398 67.3779 40.3113 67.6982C28.4117 75.1935 12.5402 68.0666 10.25 54.197C8.42421 43.1463 15.9676 32.8802 27.0984 31.2947C28.0273 31.1666 28.9562 31.1345 29.9492 31.0545ZM39.4305 58.7775C39.4305 58.6814 39.4305 58.6494 39.4144 58.6174C36.8519 54.0689 36.5476 49.4084 38.6777 44.6037C38.7418 44.4595 38.7098 44.1873 38.6137 44.0752C38.1172 43.5306 37.6047 43.0021 37.0441 42.4256C35.875 44.3955 35.3144 46.4615 34.9141 48.5916C34.0652 48.4634 33.2965 48.3513 32.5117 48.2392C32.8641 45.4525 33.809 42.9541 35.2824 40.4556C34.6258 39.9591 34.0492 39.2705 33.3125 39.0463C25.625 36.6599 17.5691 42.5377 17.441 50.5615C17.3289 57.224 22.2617 62.6853 28.9242 63.2298C31.2625 63.422 33.4887 62.9576 35.6027 61.8205C33.4406 58.4892 32.3355 54.8857 32.3195 50.9298C33.1844 50.9298 33.9691 50.9298 34.7539 50.9298C35.1543 55.3181 36.0672 58.281 37.7168 60.3951C37.909 60.2349 38.1172 60.0908 38.2934 59.9146C38.6937 59.5623 39.0781 59.1459 39.4305 58.7775ZM46.8617 40.6318C50.8016 47.7748 50.6574 54.8697 46.4293 61.8845C48.9758 63.1818 51.6023 63.5982 54.357 63.1017C60.7152 61.9806 65.2957 55.9267 64.5269 49.6966C63.6941 42.874 57.9445 38.0373 51.25 38.5658C49.5523 38.7099 47.8226 38.8861 46.8617 40.6318ZM44.9719 42.5216C44.8758 42.5697 44.8277 42.6017 44.7957 42.6338C44.4434 42.9861 44.1391 43.3705 43.7547 43.6748C43.2742 44.0752 43.2262 44.4435 43.4824 45.0521C45.6285 50.2892 45.116 55.3021 41.7207 59.8185C38.3094 64.3509 33.6008 66.3048 27.9312 65.6482C20.9004 64.8154 15.391 58.9377 14.9746 51.9709C14.5422 44.7158 19.2348 38.2295 26.2176 36.5638C27.707 36.2115 29.2605 36.1474 30.766 35.9392C30.4937 35.2345 30.1734 34.4338 29.8531 33.649C22.9824 33.4728 15.5351 38.0052 13.1488 46.0931C10.9066 53.7006 14.2699 62.0127 21.1566 65.9205C28.2355 69.9404 37.0121 68.6431 42.5215 62.7494C48.143 56.7435 48.3672 48.2392 44.9719 42.5216ZM41 42.9541C43.6266 40.2634 46.189 37.6369 48.7355 35.0103C48.8957 34.8502 49.0238 34.642 49.1359 34.4498C50.1449 32.7521 49.7125 30.574 48.159 29.3888C46.6695 28.2357 44.6836 28.4279 43.2582 29.8533C42.8258 30.2857 42.3933 30.7502 41.9449 31.1666C41.3043 31.7752 40.6797 31.7752 40.0391 31.1666C39.5746 30.7181 39.1422 30.2377 38.6777 29.7892C37.3965 28.54 35.6668 28.2838 34.2094 29.1486C32.7519 29.9974 31.9351 31.7912 32.4637 33.3927C32.7519 34.2256 33.2965 35.0423 33.9211 35.699C36.2113 38.1173 38.5816 40.4877 41 42.9541ZM51.2019 36.0033C58.393 36.0834 63.6941 39.1744 66.1766 46.0451C68.2426 51.7787 67.0094 57.1439 62.6371 61.4041C57.432 66.481 51.3461 66.9615 45.1 64.0466C44.4434 64.6552 43.8348 65.1998 43.2582 65.7443C49.0078 69.6041 57.6562 68.9634 63.2937 64.2228C69.2836 59.1939 71.2215 50.9619 68.0664 43.899C64.7031 36.3556 57.2238 33.3447 52.1469 33.649C51.8105 34.4498 51.5062 35.2345 51.2019 36.0033ZM41 56.2951C42.5055 52.8998 42.6176 49.6806 41.3683 46.4134C41.3043 46.2373 41.1281 46.1091 41.016 45.965C40.8719 46.1252 40.6476 46.2693 40.5996 46.4455C40.3113 47.5185 39.959 48.5756 39.8308 49.6646C39.5586 51.9068 39.959 54.0689 41 56.2951Z" fill="#BF0067"/>
<path d="M8.7125 7.59147C9.72148 4.70865 10.9387 3.87584 14.0137 3.87584C16.432 3.87584 17.7773 4.91686 18.6742 7.54342C19.8914 7.54342 21.1086 7.54342 22.3418 7.54342C23.1426 4.82076 24.8082 3.66764 28.1234 3.87584C30.1414 4.00397 31.4547 5.10904 32.3195 7.54342C33.5367 7.54342 34.7539 7.54342 35.9871 7.54342C36.7719 4.88482 38.3574 3.66764 41.7687 3.87584C43.7707 4.00397 45.084 5.09303 45.9648 7.54342C47.182 7.54342 48.3992 7.54342 49.6645 7.54342C49.7125 7.38326 49.7766 7.22311 49.8246 7.04693C50.3371 5.41334 51.4102 4.27623 53.1078 4.01998C54.1809 3.84381 55.334 3.85982 56.407 4.08404C57.9926 4.40436 58.9695 5.54147 59.45 7.07897C59.5141 7.28717 59.7703 7.55943 59.9625 7.57545C61.0676 7.6235 62.1727 7.59147 63.3098 7.59147C63.3738 7.36725 63.4219 7.15904 63.502 6.96686C64.0305 5.41334 65.0555 4.30826 66.6891 4.01998C67.682 3.84381 68.7551 3.82779 69.7641 3.98795C71.4617 4.26022 72.5668 5.34928 73.0633 6.99889C73.2074 7.47936 73.3996 7.60748 73.8641 7.59147C74.4086 7.55943 74.9531 7.57545 75.4977 7.59147C77.0191 7.63951 78.1562 8.79264 78.2203 10.3141C78.2203 10.4743 78.2203 10.6184 78.2203 10.7786C78.2203 22.2297 78.2203 33.6809 78.2203 45.1321C78.2203 45.3883 78.2203 45.6446 78.2203 45.9329C77.3875 45.9329 76.6188 45.9329 75.7699 45.9329C75.7699 37.7329 75.7699 29.5329 75.7699 21.2688C52.5793 21.2688 29.4527 21.2688 6.26211 21.2688C6.26211 23.2868 6.26211 25.3047 6.26211 27.3708C5.41328 27.3708 4.64453 27.3708 3.76367 27.3708C3.76367 27.0985 3.76367 26.8262 3.76367 26.554C3.76367 21.3008 3.76367 16.0317 3.76367 10.7786C3.76367 8.68053 4.85273 7.60748 6.98281 7.60748C7.55937 7.59147 8.11992 7.59147 8.7125 7.59147ZM18.9465 10.0899C18.6102 11.5473 18.498 12.9247 17.9695 14.1419C17.377 15.5032 16.0637 16.1438 14.5742 16.2399C13.1008 16.336 11.6273 16.32 10.3621 15.311C8.66445 13.9497 8.64844 12.0438 8.74453 10.0579C8.10391 10.0579 7.55938 10.0899 7.03086 10.0419C6.40625 9.99381 6.23008 10.234 6.24609 10.8426C6.27813 13.261 6.26211 15.6954 6.26211 18.1137C6.26211 18.3059 6.29414 18.4981 6.31016 18.6743C29.4688 18.6743 52.5633 18.6743 75.7379 18.6743C75.7379 15.9356 75.7379 13.229 75.7219 10.5383C75.7219 10.3782 75.4496 10.0899 75.2734 10.0739C74.6168 10.0258 73.9602 10.0579 73.2555 10.0579C73.2394 11.5473 73.4156 12.9567 72.5828 14.2059C71.734 15.4712 70.5488 16.1598 69.0273 16.2399C67.5699 16.304 66.1285 16.2719 64.9113 15.2629C63.2457 13.9016 63.2297 12.0118 63.3258 10.1059C62.0445 10.1059 60.8434 10.1059 59.8664 10.1059C59.5461 11.5153 59.434 12.8926 58.9215 14.1098C58.3609 15.4391 57.0637 16.1118 55.6223 16.2239C54.2289 16.32 52.8355 16.368 51.5863 15.5192C49.6164 14.1739 49.5684 12.1559 49.6805 10.1219C48.3672 10.1219 47.182 10.1219 46.2211 10.1219C45.9168 11.5153 45.8047 12.9087 45.2922 14.1098C44.7156 15.4712 43.4023 16.1438 41.9129 16.2399C40.4875 16.336 39.0781 16.352 37.8289 15.4391C35.9551 14.0938 35.9391 12.1079 36.0352 10.1059C34.7379 10.1059 33.5527 10.1059 32.3195 10.1059C32.2875 11.5153 32.4797 12.9407 31.6629 14.1739C30.8301 15.4551 29.6609 16.1598 28.1395 16.2399C26.7141 16.32 25.3047 16.288 24.0715 15.343C22.3098 13.9817 22.2938 12.0438 22.3898 10.0899C21.1086 10.0899 19.9234 10.0899 18.9465 10.0899ZM11.227 10.0739C11.227 10.6985 11.2109 11.3071 11.227 11.9317C11.275 12.9727 11.9957 13.7094 13.0527 13.7735C13.4371 13.7895 13.8215 13.7895 14.2059 13.7735C15.423 13.7415 16.1598 13.0047 16.1758 11.7715C16.1918 10.6665 16.1918 9.56139 16.1758 8.45631C16.1758 7.07897 15.4551 6.37428 14.0938 6.34225C13.7574 6.34225 13.4211 6.32623 13.0848 6.34225C11.9957 6.39029 11.275 7.12701 11.227 8.21607C11.2109 8.84068 11.227 9.46529 11.227 10.0739ZM24.8723 10.0579C24.8723 10.6825 24.8563 11.2911 24.8723 11.9157C24.9203 13.0047 25.657 13.7254 26.7461 13.7735C27.0984 13.7895 27.4668 13.7895 27.8352 13.7735C29.0523 13.7415 29.8051 13.0208 29.8371 11.8036C29.8531 10.6504 29.8531 9.48131 29.8371 8.32818C29.8211 7.111 29.0684 6.37428 27.8512 6.35826C27.4828 6.34225 27.1305 6.34225 26.7621 6.35826C25.673 6.40631 24.9363 7.12701 24.8883 8.21607C24.8562 8.82467 24.8723 9.44928 24.8723 10.0579ZM43.4824 10.1379C43.4824 9.51334 43.4984 8.90475 43.4824 8.28014C43.4504 7.111 42.7137 6.39029 41.5285 6.34225C41.1441 6.32623 40.7598 6.32623 40.3754 6.34225C39.3344 6.39029 38.5816 7.12701 38.5496 8.16803C38.5176 9.43326 38.5176 10.6825 38.5496 11.9477C38.5816 12.9887 39.3344 13.7094 40.3914 13.7575C40.8078 13.7735 41.2242 13.7735 41.6246 13.7575C42.7137 13.7094 43.4504 12.9887 43.4984 11.8997C43.4984 11.3231 43.4824 10.7305 43.4824 10.1379ZM52.1789 10.0419C52.1789 10.6825 52.1469 11.3231 52.1789 11.9637C52.227 12.9727 52.9477 13.6934 53.9566 13.7575C54.3891 13.7895 54.8375 13.7895 55.2699 13.7575C56.359 13.7094 57.0957 12.9727 57.1277 11.8837C57.1598 10.6825 57.1598 9.46529 57.1277 8.26412C57.1117 7.12701 56.359 6.39029 55.2379 6.34225C54.8215 6.32623 54.4051 6.32623 54.0047 6.34225C52.9637 6.40631 52.227 7.12701 52.1949 8.18404C52.1469 8.80865 52.1629 9.41725 52.1789 10.0419ZM70.773 10.1379C70.773 9.51334 70.7891 8.90475 70.773 8.28014C70.741 7.111 70.0043 6.39029 68.8191 6.35826C68.4348 6.34225 68.0504 6.34225 67.666 6.35826C66.625 6.42232 65.8723 7.14303 65.8402 8.18404C65.8082 9.44928 65.8082 10.6985 65.8402 11.9637C65.8723 13.0047 66.625 13.7254 67.682 13.7735C68.0984 13.7895 68.5148 13.7895 68.9152 13.7735C70.0043 13.7254 70.741 13.0047 70.7891 11.9157C70.7891 11.3071 70.773 10.7145 70.773 10.1379Z" fill="#585858"/>
<path d="M3.77966 29.9011C4.66052 29.9011 5.42927 29.9011 6.26208 29.9011C6.26208 30.2375 6.26208 30.5417 6.26208 30.846C6.26208 45.3722 6.26208 59.8824 6.26208 74.4086C6.26208 75.7859 6.13396 75.6738 7.49529 75.6738C17.5051 75.6738 27.4988 75.6738 37.5086 75.6738C37.8129 75.6738 38.1172 75.6738 38.4855 75.6738C38.4855 76.5066 38.4855 77.2914 38.4855 78.1562C38.1972 78.1562 37.909 78.1562 37.6367 78.1562C27.4508 78.1562 17.2648 78.1562 7.07888 78.1562C4.85271 78.1562 3.77966 77.0992 3.77966 74.905C3.77966 60.1707 3.77966 45.4523 3.77966 30.7179C3.77966 30.4777 3.77966 30.2214 3.77966 29.9011Z" fill="#585858"/>
<path d="M41.032 78.1562C41.032 77.3074 41.032 76.5546 41.032 75.6738C41.3363 75.6738 41.6406 75.6738 41.9449 75.6738C52.8516 75.6738 63.7582 75.6738 74.6649 75.6738C75.7379 75.6738 75.7379 75.6738 75.7379 74.5687C75.7379 66.1925 75.7379 57.8003 75.7379 49.4242C75.7379 49.1199 75.7379 48.8156 75.7379 48.4792C76.5707 48.4792 77.3395 48.4792 78.2203 48.4792C78.2203 48.7515 78.2203 49.0238 78.2203 49.296C78.2203 57.8644 78.2203 66.4167 78.2203 74.9851C78.2203 77.0511 77.1313 78.1562 75.0813 78.1562C63.9664 78.1562 52.8516 78.1562 41.7367 78.1562C41.5445 78.1562 41.3363 78.1562 41.032 78.1562Z" fill="#585858"/>
</g>
<defs>
<clipPath id="clip0_1002_2542">
<rect width="82" height="82" fill="white"/>
</clipPath>
</defs>
</svg>
