<svg width="82" height="82" viewBox="0 0 82 82" fill="none" xmlns="http://www.w3.org/2000/svg">
<g clip-path="url(#clip0_1002_2503)">
<path d="M41.8809 35.5386C42.5695 33.6167 43.2102 31.6948 43.9309 29.789C45.084 26.73 47.9988 24.8882 51.234 25.0964C54.3891 25.3046 57.1117 27.5948 57.8004 30.7659C58.2969 32.9921 57.9606 35.971 54.7254 38.4534C58.9535 38.4534 63.0535 38.4534 67.2176 38.4534C67.2176 42.5214 67.2176 46.5093 67.2176 50.5452C66.1606 50.5452 65.1035 50.5452 63.9664 50.5452C63.9664 59.9464 63.9664 69.2995 63.9664 78.7007C49.152 78.7007 34.4496 78.7007 19.6672 78.7007C19.6672 69.3636 19.6672 60.0265 19.6672 50.6093C18.5301 50.6093 17.457 50.6093 16.3359 50.6093C16.3359 46.5413 16.3359 42.5534 16.3359 38.5175C20.452 38.5175 24.552 38.5175 28.652 38.5175C28.716 38.4374 28.7641 38.3573 28.8281 38.2772C28.652 38.1812 28.4438 38.1011 28.2836 37.973C25.8012 35.8749 24.9363 32.7358 26.0094 29.805C27.0664 26.9382 29.7891 25.0483 32.8641 25.0483C35.9711 25.0483 38.6297 26.9702 39.7348 30.0132C40.3914 31.839 41.032 33.6808 41.6727 35.5065C41.7527 35.5386 41.8168 35.5386 41.8809 35.5386ZM22.3578 76.0261C27.0664 76.0261 31.727 76.0261 36.3555 76.0261C36.3555 67.5218 36.3555 59.0655 36.3555 50.6253C31.6629 50.6253 27.0344 50.6253 22.3578 50.6253C22.3578 59.1136 22.3578 67.5378 22.3578 76.0261ZM61.1797 76.0581C61.1797 67.5378 61.1797 59.0815 61.1797 50.6573C56.4711 50.6573 51.8266 50.6573 47.182 50.6573C47.182 59.1616 47.182 67.5858 47.182 76.0581C51.8746 76.0581 56.5031 76.0581 61.1797 76.0581ZM39.1742 41.2081C39.1742 52.8194 39.1742 64.4147 39.1742 76.0261C40.9359 76.0261 42.6816 76.0261 44.4113 76.0261C44.4113 64.3827 44.4113 52.8034 44.4113 41.2081C42.6336 41.2081 40.9359 41.2081 39.1742 41.2081ZM18.9945 47.8386C24.8242 47.8386 30.5898 47.8386 36.3395 47.8386C36.3395 45.5964 36.3395 43.4022 36.3395 41.2241C30.5258 41.2241 24.7762 41.2241 18.9945 41.2241C18.9945 43.4503 18.9945 45.6124 18.9945 47.8386ZM47.182 47.8386C53.0277 47.8386 58.7934 47.8386 64.527 47.8386C64.527 45.5964 64.527 43.4022 64.527 41.2401C58.7133 41.2401 52.9637 41.2401 47.182 41.2401C47.182 43.4503 47.182 45.6124 47.182 47.8386ZM39.7828 38.1491C38.7738 35.3784 37.925 32.7519 36.868 30.2214C36.0672 28.3155 33.825 27.4187 31.807 27.8991C29.725 28.3956 28.2676 30.2214 28.2676 32.3194C28.2516 34.4335 29.677 36.3554 31.759 36.7718C34.3375 37.2843 36.948 37.6687 39.7828 38.1491ZM43.7707 38.1491C46.5895 37.6687 49.216 37.2843 51.7945 36.7718C53.8766 36.3554 55.302 34.4335 55.2859 32.3194C55.2699 30.2214 53.8285 28.3956 51.7465 27.8991C49.7285 27.4026 47.4863 28.3155 46.6855 30.2214C45.6285 32.7519 44.7957 35.3784 43.7707 38.1491Z" fill="#585858"/>
<path d="M71.3176 15.6792C69.0914 15.6792 67.2656 13.8374 67.2977 11.6112C67.3137 9.43306 69.1234 7.62329 71.3176 7.62329C73.5437 7.62329 75.3695 9.46509 75.3535 11.6913C75.3215 13.8854 73.4957 15.6792 71.3176 15.6792ZM71.3176 12.9885C72.0383 12.9885 72.6469 12.3639 72.6469 11.6432C72.6469 10.9225 72.0383 10.3139 71.3016 10.3139C70.5809 10.3139 69.9723 10.9225 69.9723 11.6592C69.9723 12.3799 70.5969 12.9885 71.3176 12.9885Z" fill="#BF0067"/>
<path d="M8.24805 57.3038C10.4742 57.3198 12.284 59.1616 12.252 61.3878C12.2199 63.5659 10.3941 65.3597 8.2 65.3437C5.98984 65.3276 4.16406 63.4698 4.19609 61.2437C4.22813 59.0816 6.05391 57.2878 8.24805 57.3038ZM8.2 62.653C8.9207 62.6691 9.54531 62.0605 9.56133 61.3398C9.57734 60.6191 8.96875 59.9944 8.24805 59.9784C7.52734 59.9624 6.90273 60.571 6.88672 61.2917C6.8707 62.0284 7.4793 62.653 8.2 62.653Z" fill="#BF0067"/>
<path d="M47.166 8.98467C47.166 7.22295 47.166 5.47725 47.166 3.66748C48.0469 3.66748 48.8797 3.66748 49.8246 3.66748C49.8246 5.44522 49.8246 7.20693 49.8246 8.98467L49.8566 8.96865C48.9598 8.96865 48.0469 8.96865 47.15 8.96865L47.166 8.98467Z" fill="#BF0067"/>
<path d="M9.57734 11.6753C9.57734 9.91362 9.57734 8.16792 9.57734 6.35815C10.4582 6.35815 11.291 6.35815 12.2359 6.35815C12.2359 8.13589 12.2359 9.89761 12.2359 11.6753L12.268 11.6593C11.3711 11.6593 10.4582 11.6593 9.56133 11.6593L9.57734 11.6753Z" fill="#BF0067"/>
<path d="M47.166 11.6434C45.4043 11.6434 43.6586 11.6434 41.8488 11.6434C41.8488 10.7625 41.8488 9.91367 41.8488 8.98477C43.6266 8.98477 45.4043 8.98477 47.166 8.98477L47.134 8.96875C47.134 9.86562 47.134 10.7785 47.134 11.6754L47.166 11.6434Z" fill="#BF0067"/>
<path d="M49.8246 8.98477C51.5863 8.98477 53.332 8.98477 55.1418 8.98477C55.1418 9.86562 55.1418 10.7145 55.1418 11.6434C53.3641 11.6434 51.6024 11.6434 49.8246 11.6434L49.8406 11.6754C49.8406 10.7785 49.8406 9.86562 49.8406 8.96875L49.8246 8.98477Z" fill="#BF0067"/>
<path d="M9.57734 14.3338C7.81562 14.3338 6.06992 14.3338 4.26015 14.3338C4.26015 13.4529 4.26015 12.6041 4.26015 11.6752C6.03789 11.6752 7.81562 11.6752 9.57734 11.6752L9.54531 11.6592C9.54531 12.5561 9.54531 13.4689 9.54531 14.3658L9.57734 14.3338Z" fill="#BF0067"/>
<path d="M12.2359 11.6752C13.9977 11.6752 15.7434 11.6752 17.5531 11.6752C17.5531 12.5561 17.5531 13.4049 17.5531 14.3338C15.7754 14.3338 14.0137 14.3338 12.2359 14.3338L12.252 14.3658C12.252 13.4689 12.252 12.5561 12.252 11.6592L12.2359 11.6752Z" fill="#BF0067"/>
<path d="M49.8246 11.6433C49.8246 13.405 49.8246 15.1507 49.8246 16.9605C48.9437 16.9605 48.0949 16.9605 47.166 16.9605C47.166 15.1828 47.166 13.405 47.166 11.6433L47.15 11.6753C48.0469 11.6753 48.9598 11.6753 49.8566 11.6753L49.8246 11.6433Z" fill="#BF0067"/>
<path d="M12.2359 14.334C12.2359 16.0957 12.2359 17.8414 12.2359 19.6512C11.3551 19.6512 10.5063 19.6512 9.57734 19.6512C9.57734 17.8734 9.57734 16.0957 9.57734 14.334L9.56133 14.366C10.4582 14.366 11.3711 14.366 12.268 14.366L12.2359 14.334Z" fill="#BF0067"/>
<path d="M69.9883 27.771C69.9883 26.0093 69.9883 24.2636 69.9883 22.4539C70.8691 22.4539 71.7019 22.4539 72.6469 22.4539C72.6469 24.2316 72.6469 25.9933 72.6469 27.771L72.6789 27.755C71.782 27.755 70.8691 27.755 69.9723 27.755L69.9883 27.771Z" fill="#BF0067"/>
<path d="M69.9883 30.4295C68.2266 30.4295 66.4809 30.4295 64.6711 30.4295C64.6711 29.5486 64.6711 28.6998 64.6711 27.7709C66.4488 27.7709 68.2266 27.7709 69.9883 27.7709L69.9562 27.7549C69.9562 28.6518 69.9562 29.5646 69.9562 30.4615L69.9883 30.4295Z" fill="#BF0067"/>
<path d="M72.6469 27.7709C74.4086 27.7709 76.1543 27.7709 77.9641 27.7709C77.9641 28.6518 77.9641 29.5006 77.9641 30.4295C76.1863 30.4295 74.4246 30.4295 72.6469 30.4295L72.6629 30.4615C72.6629 29.5646 72.6629 28.6518 72.6629 27.7549L72.6469 27.7709Z" fill="#BF0067"/>
<path d="M72.6469 30.4297C72.6469 32.1914 72.6469 33.9371 72.6469 35.7469C71.766 35.7469 70.9172 35.7469 69.9883 35.7469C69.9883 33.9691 69.9883 32.1914 69.9883 30.4297L69.9723 30.4617C70.8691 30.4617 71.782 30.4617 72.6789 30.4617L72.6469 30.4297Z" fill="#BF0067"/>
<path d="M29.757 15.7112C30.6379 15.7112 31.4547 15.7112 32.3355 15.7112C32.3355 16.592 32.3355 17.4409 32.3355 18.3217C31.4707 18.3217 30.6539 18.3217 29.757 18.3217C29.757 17.4889 29.757 16.6401 29.757 15.7112Z" fill="#BF0067"/>
<path d="M10.8426 31.759C9.97773 31.759 9.16094 31.759 8.28008 31.759C8.28008 30.8781 8.28008 30.0453 8.28008 29.1484C9.12891 29.1484 9.9457 29.1484 10.8426 29.1484C10.8426 29.9812 10.8426 30.8301 10.8426 31.759Z" fill="#BF0067"/>
<path d="M75.3856 57.2558C75.3856 56.3909 75.3856 55.5741 75.3856 54.6772C76.2344 54.6772 77.0832 54.6772 77.9801 54.6772C77.9801 55.5101 77.9801 56.3589 77.9801 57.2558C77.1313 57.2558 76.2984 57.2558 75.3856 57.2558Z" fill="#BF0067"/>
</g>
<defs>
<clipPath id="clip0_1002_2503">
<rect width="82" height="82" fill="white"/>
</clipPath>
</defs>
</svg>
