<svg width="82" height="82" viewBox="0 0 82 82" fill="none" xmlns="http://www.w3.org/2000/svg">
<path d="M28.7961 79.4374C28.2996 79.053 28.2515 78.6045 28.5398 78.06C29.6609 75.8979 31.4226 74.7288 33.857 74.6327C34.882 74.6006 35.891 74.6327 36.964 74.6327C36.964 72.5026 36.964 70.4366 36.964 68.2745C36.6117 68.2745 36.2914 68.2745 35.9871 68.2745C27.2586 68.2745 18.53 68.2745 9.80153 68.2905C9.0488 68.2905 8.55231 68.0663 8.10388 67.4577C6.75856 65.6639 5.33317 63.9182 3.97185 62.1245C3.74763 61.8202 3.53942 61.2756 3.66755 61.0194C3.79567 60.7631 4.35622 60.603 4.7406 60.587C6.23005 60.5389 7.73552 60.5709 9.32106 60.5709C9.32106 60.2186 9.32106 59.9303 9.32106 59.642C9.32106 55.542 9.30505 51.442 9.32106 47.342C9.33708 43.4663 11.8515 40.4553 15.5992 39.7666C15.9836 39.6866 16.384 39.6706 16.8804 39.6225C16.8965 39.3663 16.9125 39.094 16.9125 38.8377C16.9125 35.6186 16.9125 32.3834 16.9125 29.1643C16.9125 25.3846 19.3789 22.9182 23.1586 22.9182C35.0101 22.9182 46.8617 22.9182 58.7132 22.9182C62.509 22.9182 64.9593 25.3846 64.9754 29.1483C64.9754 32.3514 64.9754 35.5545 64.9754 38.7577C64.9754 39.0299 64.9754 39.3022 64.9754 39.6225C65.4238 39.6706 65.8242 39.6866 66.2086 39.7666C70.0203 40.4233 72.5508 43.4823 72.5668 47.5022C72.5828 51.5221 72.5668 55.5581 72.5668 59.578C72.5668 59.8823 72.5668 60.1706 72.5668 60.5709C73.9761 60.5709 75.3535 60.5549 76.7148 60.587C77.2593 60.603 77.948 60.3467 78.2683 61.0194C78.5886 61.676 77.9961 62.0764 77.6597 62.5088C76.3465 64.2065 74.9851 65.8721 73.6879 67.5858C73.2715 68.1303 72.823 68.3225 72.1664 68.3225C63.4218 68.3065 54.6613 68.3065 45.9168 68.3065C45.5965 68.3065 45.2761 68.3065 44.9078 68.3065C44.9078 70.4366 44.9078 72.5026 44.9078 74.6647C45.9488 74.6647 46.9898 74.6327 48.0308 74.6647C50.4492 74.7448 52.1949 75.8819 53.316 78.012C53.6203 78.5725 53.6363 79.037 53.1078 79.4694C45.0039 79.4374 36.9 79.4374 28.7961 79.4374ZM40.9519 41.144C39.975 41.144 38.998 41.144 38.0211 41.144C31.0383 41.144 24.0715 41.16 17.0886 41.144C15.1508 41.144 13.5332 41.8006 12.2359 43.242C10.5383 45.1319 10.7304 47.4381 10.8105 49.7124C10.8105 49.8885 11.0187 50.0487 11.1308 50.2088C14.4461 54.6131 20.8203 55.5741 25.3367 52.3549C27.2586 50.9936 28.5558 49.1838 29.2605 46.9256C29.4047 46.4452 29.4847 45.8686 30.1414 45.8846C30.798 45.9006 30.8461 46.4772 31.0062 46.9577C31.0222 47.0057 31.0222 47.0538 31.0383 47.1018C32.5918 51.9545 37.5566 55.0295 42.5375 54.1327C46.7816 53.3799 49.5683 50.8815 50.8816 46.7655C51.0258 46.317 51.1859 45.7885 51.7304 45.9167C52.0347 45.9967 52.259 46.4612 52.5152 46.7655C52.5793 46.8295 52.5793 46.9577 52.6113 47.0377C53.9406 50.8815 56.5832 53.3319 60.5711 54.0686C64.6711 54.8374 68.0984 53.444 70.725 50.1928C70.8691 50.0006 71.0613 49.7604 71.0613 49.5522C71.0293 48.2549 71.1093 46.9256 70.8211 45.6764C70.1965 42.8897 67.8101 41.176 64.7832 41.176C56.8554 41.128 48.8957 41.144 40.9519 41.144ZM10.8265 60.4909C30.9582 60.4909 51.0097 60.4909 71.0613 60.4909C71.0613 57.7202 71.0613 54.9975 71.0613 52.1948C68.0343 55.0456 64.559 56.2627 60.539 55.5581C56.5351 54.8694 53.6683 52.5631 51.7945 48.9436C47.2461 58.0405 34.5617 57.8643 30.1894 48.9276C28.2996 52.5791 25.4168 54.9014 21.3648 55.5741C17.3289 56.2467 13.8535 54.9975 10.8425 52.1467C10.8265 55.0135 10.8265 57.7202 10.8265 60.4909ZM76.0422 62.1245C52.5632 62.1245 29.2445 62.1245 5.78161 62.1245C6.88669 63.5338 7.94372 64.8311 8.95271 66.1604C9.32106 66.6569 9.70544 66.8331 10.314 66.8331C30.75 66.817 51.1699 66.817 71.6058 66.817C71.75 66.817 71.9101 66.8491 72.0543 66.801C72.2465 66.737 72.5027 66.6889 72.6148 66.5288C73.7359 65.1034 74.857 63.662 76.0422 62.1245ZM18.45 39.5905C33.5047 39.5905 48.4793 39.5905 63.4539 39.5905C63.4539 37.9569 63.4539 36.3553 63.4539 34.7217C63.2457 34.7217 63.0695 34.7217 62.8933 34.7217C61.3879 34.7217 59.8984 34.7217 58.3929 34.7217C57.8644 34.7217 57.48 34.4975 57.5121 33.937C57.5281 33.4405 57.8965 33.2163 58.3929 33.2163C58.8414 33.2163 59.2898 33.2163 59.7383 33.2163C60.9715 33.2163 62.2207 33.2163 63.4699 33.2163C63.4699 32.5916 63.4699 32.0791 63.4699 31.5346C48.4472 31.5346 33.4726 31.5346 18.466 31.5346C18.466 32.1112 18.466 32.6237 18.466 33.2163C18.7863 33.2163 19.0906 33.2163 19.3789 33.2163C30.2054 33.2163 41.032 33.2163 51.8586 33.2163C52.4511 33.2163 53.2199 33.0721 53.2359 33.953C53.2519 34.8178 52.4832 34.7217 51.8906 34.7217C41.032 34.7217 30.1894 34.7217 19.3308 34.7217C19.0425 34.7217 18.7543 34.7217 18.466 34.7217C18.45 36.4034 18.45 37.9729 18.45 39.5905ZM18.498 29.9331C33.5047 29.9331 48.4632 29.9331 63.4218 29.9331C63.8863 26.6499 61.9804 24.3916 58.7293 24.3916C46.8777 24.3916 35.0261 24.3916 23.1906 24.3916C19.9394 24.3916 18.0015 26.6819 18.498 29.9331ZM30.4136 77.9159C37.4925 77.9159 44.4433 77.9159 51.5062 77.9159C50.5933 76.7627 49.4883 76.1702 48.159 76.1702C43.3703 76.1381 38.5656 76.1381 33.7769 76.1702C32.4316 76.1702 31.3265 76.7627 30.4136 77.9159ZM43.3062 74.6166C43.3062 72.4706 43.3062 70.4045 43.3062 68.3385C41.6886 68.3385 40.1191 68.3385 38.5175 68.3385C38.5175 70.4526 38.5175 72.5186 38.5175 74.6166C40.1511 74.6166 41.7207 74.6166 43.3062 74.6166Z" fill="#585858"/>
<path d="M32.4477 6.42218C34.0332 2.53038 38.0852 1.60148 41.016 3.76359C43.4984 1.39327 47.6145 2.67453 49.3121 6.39015C49.4723 6.27804 49.6324 6.18195 49.7766 6.06984C51.6664 4.62843 54.0207 4.46827 55.9426 5.65343C57.9445 6.88663 58.9855 9.30499 58.6012 11.5792C58.2809 13.5331 57.0957 14.8624 55.6223 15.9995C52.8996 18.0976 49.7605 19.4109 46.5734 20.58C46.0449 20.7722 45.6125 20.6441 45.2441 20.1956C43.9949 18.6421 42.7297 17.0886 41.4645 15.5511C41.2883 15.3429 41.1441 15.1187 40.9359 14.8624C40.2793 15.7273 39.7027 16.5601 39.0621 17.3448C38.2613 18.3378 37.3965 19.2667 36.5637 20.2437C36.2273 20.628 35.843 20.7241 35.3625 20.548C32.1113 19.3628 28.9402 18.0335 26.1855 15.8874C24.4559 14.5581 23.1426 12.9405 23.1426 10.6343C23.1426 8.31203 24.1195 6.45421 26.2656 5.39718C28.3637 4.3882 30.3496 4.77257 32.1594 6.18195C32.2234 6.24601 32.3035 6.31007 32.4477 6.42218ZM28.684 6.3421C27.0984 6.35812 25.9773 7.06281 25.2406 8.34406C24.0715 10.378 24.6 12.7163 26.634 14.414C29.1805 16.5441 32.1914 17.8253 35.2664 18.9624C35.4426 19.0265 35.7629 18.9304 35.891 18.8023C37.877 16.6081 39.7188 14.3179 41.032 11.6433C41.5926 10.4901 42.025 9.30499 41.8809 7.9757C41.6566 5.8296 39.7508 4.0839 37.6207 4.11593C35.5707 4.14796 33.9211 5.86163 33.7289 8.03976C33.6969 8.3921 33.3445 8.6964 33.1363 9.03273C32.832 8.82452 32.4156 8.6964 32.2395 8.40812C31.3586 7.09484 30.1895 6.39015 28.684 6.3421ZM42.1531 4.70851C44.5074 7.79952 43.3223 10.7624 41.7527 13.5812C42.073 13.9335 42.3613 14.2058 42.6016 14.5101C43.4504 15.5831 44.2672 16.7042 45.132 17.7612C46.2691 19.1546 46.2852 19.1546 47.9348 18.4819C48.2551 18.3538 48.5754 18.2097 48.8957 18.0816C51.25 17.0566 53.5723 15.9355 55.5262 14.2058C56.423 13.405 57.0477 12.4601 57.2238 11.2109C57.4961 9.17687 56.407 7.23898 54.5172 6.53429C52.8195 5.90968 50.8336 6.71046 49.7125 8.37609C49.5203 8.68038 49.0719 9.01671 48.7516 9.0007C48.207 8.96867 48.175 8.44015 48.159 7.95968C47.9828 4.91671 44.9078 3.21906 42.1531 4.70851Z" fill="#BF0067"/>
</svg>
