<svg width="82" height="82" viewBox="0 0 82 82" fill="none" xmlns="http://www.w3.org/2000/svg">
<path d="M76.5867 25.3047C53.1879 25.3047 29.8851 25.3047 6.51834 25.3047C6.51834 27.1785 6.51834 29.0203 6.51834 30.8621C6.51834 32.1594 6.14998 32.752 5.30115 32.768C4.4363 32.8 4.0199 32.1754 4.0199 30.8461C4.0199 24.9524 4.0199 19.0586 4.0199 13.1649C4.0199 10.5063 5.52537 8.98478 8.16794 8.98478C10.5062 8.98478 12.8445 8.98478 15.2789 8.98478C15.2789 8.15197 15.2789 7.38322 15.2789 6.59845C15.2949 4.3883 16.9285 2.72267 19.0265 2.72267C21.1406 2.72267 22.7582 4.3883 22.7742 6.59845C22.7742 7.35119 22.7742 8.10392 22.7742 8.92072C25.2726 8.92072 27.723 8.92072 30.2855 8.92072C30.2855 8.15197 30.2855 7.38322 30.2855 6.61447C30.3015 4.40431 31.9191 2.73869 34.0332 2.72267C36.1472 2.72267 37.7648 4.3883 37.7969 6.59845C37.8129 7.35119 37.7969 8.10392 37.7969 8.92072C40.2793 8.92072 42.7457 8.92072 45.3082 8.92072C45.3082 8.16798 45.3082 7.39923 45.3082 6.61447C45.3242 4.40431 46.9418 2.72267 49.0398 2.72267C51.1539 2.70666 52.7875 4.37228 52.8035 6.58244C52.8195 7.35119 52.8035 8.13595 52.8035 8.93673C55.318 8.93673 57.7683 8.93673 60.3148 8.93673C60.3148 8.184 60.3148 7.44728 60.3148 6.69455C60.3308 4.42033 61.9004 2.72267 64.0465 2.70666C66.2246 2.69064 67.8101 4.3883 67.8262 6.71056C67.8262 7.43127 67.8262 8.15197 67.8262 8.96877C68.8992 8.96877 69.9082 8.96877 70.9172 8.96877C72.4066 8.96877 73.8961 8.95275 75.3695 8.96877C77.4195 9.0008 79.0211 10.6024 79.0691 12.6524C79.0691 12.8926 79.0691 13.1168 79.0691 13.357C79.0691 30.0133 79.0691 46.6696 79.0691 63.3258C79.0691 63.6141 79.1012 63.9024 79.0531 64.1906C78.925 64.8633 78.5086 65.2637 77.8199 65.2637C77.1312 65.2637 76.7148 64.8473 76.5867 64.1746C76.5387 63.9024 76.5707 63.5981 76.5707 63.3098C76.5707 50.9617 76.5707 38.5977 76.5707 26.2496C76.5867 25.9774 76.5867 25.6731 76.5867 25.3047ZM15.2789 11.4992C12.8445 11.4992 10.5062 11.4992 8.16794 11.4992C6.93474 11.4992 6.53435 11.9156 6.51834 13.1328C6.51834 16.1117 6.51834 19.0746 6.51834 22.0535C6.51834 22.2778 6.55037 22.502 6.56638 22.6942C29.9492 22.6942 53.2519 22.6942 76.5867 22.6942C76.5867 19.3469 76.6027 16.0637 76.5867 12.7805C76.5867 11.9637 76.0742 11.4992 75.2254 11.4832C74.1363 11.4672 73.0312 11.4832 71.9422 11.4832C70.5969 11.4832 69.2515 11.4832 67.8262 11.4832C67.8262 12.284 67.8262 13.0047 67.8262 13.7414C67.8101 16.0637 66.2086 17.7613 64.0465 17.7453C61.9164 17.7293 60.3308 16.0477 60.3308 13.7574C60.3308 13.0207 60.3308 12.268 60.3308 11.5313C57.7844 11.5313 55.334 11.5313 52.8195 11.5313C52.8195 12.2039 52.7875 12.8606 52.8195 13.5012C52.9957 16.2078 50.9457 17.7613 49.0398 17.7453C47.182 17.7293 45.132 16.1918 45.3082 13.5332C45.3562 12.8766 45.3082 12.2039 45.3082 11.5473C42.7457 11.5473 40.2793 11.5473 37.7969 11.5473C37.7969 12.3641 37.7969 13.1168 37.7969 13.8695C37.7648 16.0637 36.1472 17.7453 34.0332 17.7293C31.9351 17.7293 30.3176 16.0477 30.3015 13.8375C30.3015 13.0688 30.3015 12.3 30.3015 11.5313C27.739 11.5313 25.2887 11.5313 22.7902 11.5313C22.7902 12.3961 22.8062 13.1969 22.7902 14.0137C22.7422 16.0957 21.0926 17.7293 19.0426 17.7293C16.9926 17.7293 15.3429 16.0957 15.2949 13.9977C15.2629 13.2289 15.2789 12.4121 15.2789 11.4992ZM17.7773 10.25C17.7773 11.4192 17.7773 12.5883 17.7773 13.7735C17.7773 14.6863 18.2738 15.2469 19.0265 15.2629C19.7793 15.2629 20.2758 14.7024 20.2758 13.7895C20.2918 11.4512 20.2918 9.09689 20.2758 6.75861C20.2758 5.84572 19.7793 5.28517 19.0265 5.28517C18.2738 5.28517 17.7773 5.84572 17.7773 6.75861C17.7773 7.89572 17.7773 9.08087 17.7773 10.25ZM32.8 10.25C32.8 11.4192 32.8 12.5883 32.8 13.7735C32.8 14.6863 33.2965 15.2469 34.0492 15.2469C34.8019 15.2469 35.2984 14.6863 35.2984 13.7574C35.3144 11.4192 35.3144 9.06486 35.2984 6.72658C35.2984 5.81369 34.8019 5.25314 34.0492 5.25314C33.2965 5.25314 32.816 5.81369 32.8 6.72658C32.8 7.89572 32.8 9.08087 32.8 10.25ZM50.3211 10.266C50.3211 9.09689 50.3211 7.92775 50.3211 6.74259C50.3211 5.81369 49.8406 5.25314 49.0879 5.25314C48.3351 5.25314 47.8386 5.81369 47.8226 6.72658C47.8066 9.06486 47.8226 11.4192 47.8226 13.7574C47.8226 14.6863 48.3031 15.2469 49.0558 15.2469C49.8086 15.2469 50.3051 14.6863 50.3211 13.7735C50.3211 12.6043 50.3211 11.4352 50.3211 10.266ZM62.8293 10.234C62.8293 11.4031 62.8293 12.5723 62.8293 13.7574C62.8293 14.6863 63.3097 15.2469 64.0625 15.2469C64.8152 15.2469 65.3117 14.6863 65.3277 13.7735C65.3437 11.4352 65.3437 9.08087 65.3277 6.74259C65.3277 5.81369 64.8472 5.25314 64.0945 5.25314C63.3418 5.25314 62.8453 5.81369 62.8453 6.72658C62.8293 7.89572 62.8293 9.06486 62.8293 10.234Z" fill="#818181"/>
<path d="M25.2887 49.0399C25.2887 47.006 25.2887 45.0841 25.2887 43.1622C25.2887 41.945 25.7051 41.5286 26.9383 41.5286C28.3957 41.5286 29.8531 41.5126 31.3105 41.5286C32.3195 41.5286 32.784 41.9931 32.784 43.0181C32.8 44.988 32.784 46.9739 32.784 48.9919C34.4496 48.9919 36.0672 48.9919 37.7969 48.9919C37.7969 48.4153 37.7969 47.8388 37.7969 47.2462C37.7969 45.8368 37.7969 44.4274 37.7969 43.0181C37.7969 41.9931 38.2453 41.5286 39.2703 41.5286C40.7758 41.5126 42.2973 41.5126 43.8027 41.5286C44.8598 41.5286 45.2922 41.9931 45.3082 43.0821C45.3082 45.036 45.3082 46.9899 45.3082 48.9919C46.9738 48.9919 48.6074 48.9919 50.3211 48.9919C50.3211 47.1341 50.3211 45.2923 50.3211 43.4505C50.3211 41.8489 50.6414 41.5286 52.243 41.5286C53.6043 41.5286 54.9496 41.5286 56.3109 41.5286C57.384 41.5286 57.8324 41.9771 57.8324 43.0501C57.8484 45.004 57.8324 46.9579 57.8324 49.0399C58.6012 49.0399 59.3379 49.0399 60.0906 49.0399C62.525 49.056 64.0945 50.6095 64.0945 53.0599C64.0945 58.2489 64.0945 63.438 64.0945 68.6271C64.0945 69.9083 63.6941 70.3247 62.4289 70.3247C48.5434 70.3247 34.6418 70.3247 20.7563 70.3247C19.459 70.3247 19.0586 69.9243 19.0586 68.6591C19.0586 63.438 19.0586 58.2329 19.0586 53.0118C19.0586 50.6255 20.6441 49.056 23.0305 49.0399C23.7352 49.0399 24.4559 49.0399 25.2887 49.0399ZM21.557 67.7622C34.9301 67.7622 48.223 67.7622 61.516 67.7622C61.516 64.8314 61.516 61.9646 61.516 59.0978C61.452 59.0337 61.3879 58.9696 61.3078 58.9216C60.7793 59.338 60.2348 59.7384 59.7383 60.2028C58.393 61.4841 56.8234 61.9806 55.0777 61.2599C54.2609 60.9235 53.5723 60.2669 52.8996 59.6903C51.9387 58.8575 51.1379 58.8255 50.209 59.7063C49.9848 59.9146 49.7766 60.1708 49.5523 60.363C48.2391 61.5321 46.7016 61.9646 45.068 61.2759C44.2672 60.9396 43.5625 60.2829 42.8898 59.6903C41.9289 58.8575 41.1281 58.8255 40.1992 59.7063C39.975 59.9146 39.7668 60.1708 39.5426 60.363C38.2293 61.5321 36.6918 61.9485 35.0582 61.2599C34.2574 60.9235 33.5527 60.2669 32.8801 59.6743C31.9191 58.8415 31.1184 58.8095 30.1895 59.6903C29.9812 59.8825 29.7891 60.1067 29.5809 60.2989C28.3316 61.4521 26.8582 61.9005 25.2566 61.3399C24.4879 61.0677 23.8152 60.4591 23.1426 59.9466C22.6621 59.5782 22.2938 59.0177 21.541 59.0978C21.557 61.9806 21.557 64.8474 21.557 67.7622ZM61.5801 56.5353C61.5801 55.4622 61.5801 54.4692 61.5801 53.4923C61.5801 51.8747 61.2598 51.5544 59.6902 51.5544C47.5984 51.5544 35.5066 51.5544 23.4309 51.5544C23.1746 51.5544 22.9023 51.5384 22.6461 51.5704C22.0375 51.6665 21.6051 52.0349 21.573 52.6435C21.525 53.9407 21.557 55.238 21.557 56.5192C23.2547 56.7595 23.7992 57.0478 25.0164 58.2489C26.1535 59.37 27.0344 59.4341 28.0754 58.2169C29.9813 56.0067 33.1844 56.0548 35.0422 58.2329C36.0672 59.4341 37.0441 59.4341 38.0852 58.2169C39.991 56.0067 43.1941 56.0548 45.052 58.2329C46.077 59.4341 47.0539 59.4341 48.0949 58.2329C50.0008 56.0228 53.2039 56.0708 55.0617 58.2329C56.1027 59.4341 56.9996 59.4021 58.1047 58.2329C59.0496 57.2399 60.1387 56.6314 61.5801 56.5353ZM27.8512 44.0751C27.8512 45.7888 27.8512 47.4064 27.8512 49.0079C28.684 49.0079 29.4527 49.0079 30.2375 49.0079C30.2375 47.3423 30.2375 45.7247 30.2375 44.0751C29.4367 44.0751 28.652 44.0751 27.8512 44.0751ZM42.7617 49.0079C42.7617 47.3263 42.7617 45.7087 42.7617 44.1071C41.9129 44.1071 41.1281 44.1071 40.3594 44.1071C40.3594 45.7728 40.3594 47.3743 40.3594 49.0079C41.1602 49.0079 41.9289 49.0079 42.7617 49.0079ZM55.2699 49.0079C55.2699 47.3263 55.2699 45.7087 55.2699 44.1071C54.4211 44.1071 53.6363 44.1071 52.8676 44.1071C52.8676 45.7728 52.8676 47.3743 52.8676 49.0079C53.6684 49.0079 54.4371 49.0079 55.2699 49.0079Z" fill="#BF0067"/>
<path d="M41.4805 77.8199C30.4297 77.8199 19.3789 77.8199 8.32814 77.8199C5.49337 77.8199 4.01993 76.3625 4.01993 73.5437C4.01993 61.4199 4.01993 49.2961 4.01993 37.1723C4.01993 36.916 4.00392 36.6437 4.03595 36.3875C4.13204 35.7148 4.54845 35.3144 5.23712 35.2664C5.87775 35.2183 6.42228 35.7148 6.50236 36.3875C6.53439 36.6437 6.51837 36.916 6.51837 37.1723C6.51837 49.2641 6.51837 61.3719 6.51837 73.4637C6.51837 74.9531 6.87072 75.3055 8.36017 75.3055C30.4938 75.3055 52.6113 75.3055 74.7449 75.3055C76.2344 75.3055 76.5867 74.9531 76.5867 73.4637C76.5867 72.0863 76.5867 70.693 76.5867 69.3156C76.5867 68.3547 77.0832 67.7621 77.868 67.7941C78.6207 67.8101 79.0691 68.3707 79.0852 69.3156C79.0852 70.8211 79.1012 72.3426 79.0852 73.848C79.0691 76.2344 77.4996 77.8039 75.0973 77.8039C63.8863 77.8359 52.6914 77.8199 41.4805 77.8199Z" fill="#585858"/>
<path d="M29.0844 40.2794C26.5219 40.2954 24.616 37.781 25.5609 35.3946C26.2016 33.7931 27.1465 32.3036 28.0434 30.8302C28.5238 30.0294 29.5809 30.0454 30.0613 30.8462C30.9582 32.3357 31.9191 33.8091 32.5437 35.4107C33.4726 37.765 31.6148 40.2634 29.0844 40.2794ZM29.1965 33.9532C29.0844 33.9532 28.9723 33.9692 28.8762 33.9692C28.5238 34.77 28.1074 35.5548 27.8832 36.3876C27.8031 36.7239 28.0914 37.3325 28.3957 37.5247C28.716 37.7329 29.3406 37.7329 29.6609 37.5407C29.9812 37.3485 30.2855 36.74 30.2055 36.4036C29.9973 35.5548 29.5488 34.77 29.1965 33.9532Z" fill="#BF0067"/>
<path d="M41.5606 40.2794C39.0301 40.2794 37.1242 37.797 38.0371 35.4427C38.6777 33.8091 39.6387 32.3036 40.5676 30.8142C41.032 30.0454 42.0731 30.0454 42.5375 30.7982C43.4664 32.3196 44.4434 33.8571 45.084 35.5068C45.9809 37.829 44.059 40.2794 41.5606 40.2794ZM41.7207 33.9532C41.6086 33.9532 41.5125 33.9532 41.4004 33.9532C41.0481 34.754 40.6156 35.5228 40.4074 36.3556C40.3274 36.6919 40.5996 37.3325 40.8879 37.5087C41.2242 37.7169 41.8809 37.7169 42.2172 37.5087C42.5215 37.3325 42.7938 36.6919 42.7137 36.3556C42.4895 35.5388 42.057 34.754 41.7207 33.9532Z" fill="#BF0067"/>
<path d="M54.0848 40.2792C51.5543 40.2953 49.6324 37.8128 50.5453 35.4585C51.1859 33.8249 52.1469 32.3195 53.0598 30.814C53.5242 30.0453 54.5652 30.0292 55.0297 30.782C55.9586 32.3035 56.9516 33.841 57.5762 35.4906C58.4891 37.8289 56.5832 40.2632 54.0848 40.2792ZM54.2289 33.9531C54.1168 33.9531 54.0047 33.9691 53.9086 33.9691C53.5562 34.7699 53.1398 35.5546 52.9156 36.3874C52.8355 36.7238 53.1238 37.3324 53.4281 37.5246C53.7484 37.7328 54.373 37.7328 54.6934 37.5406C55.0137 37.3484 55.318 36.7398 55.2379 36.4035C55.0137 35.5546 54.5812 34.7699 54.2289 33.9531Z" fill="#BF0067"/>
</svg>
