<?xml version="1.0" encoding="utf-8"?>
<!-- Generator: Adobe Illustrator 26.0.0, SVG Export Plug-In . SVG Version: 6.00 Build 0)  -->
<svg version="1.1" id="Layer_1" xmlns="http://www.w3.org/2000/svg" xmlns:xlink="http://www.w3.org/1999/xlink" x="0px" y="0px"
	 viewBox="0 0 82 82" style="enable-background:new 0 0 82 82;" xml:space="preserve">
<style type="text/css">
	.st0{fill:#585858;}
	.st1{fill:#BF0067;}
</style>
<path class="st0" d="M11.3,52.3c0.8,0.6,1.3,2.1,2.7,2.9c1.3,0.8,2.9,0.5,3.8,0.9c0.9,0.4,1.7,1.8,3.2,2.3c0.6,0.2,1.2-0.1,1.5-0.7
	c0.2-0.6-0.1-1.2-0.7-1.5c-0.9-0.3-1.7-1.6-3-2.2c-1.3-0.6-2.9-0.4-3.6-0.8c-0.8-0.5-1.4-1.9-2.5-2.8c-1.2-0.9-2.7-1.1-3.3-1.6
	c-0.4-0.4-1.2-0.5-1.6,0s-0.5,1.2,0,1.6C8.8,51.5,10.5,51.6,11.3,52.3L11.3,52.3z"/>
<path class="st0" d="M46.8,60c2.1-0.2,3.8-1.4,5.5-1.7C54,58,56,58.5,58,57.9c0.6-0.2,1-0.8,0.8-1.4c-0.2-0.6-0.8-0.9-1.4-0.8
	c-1.5,0.4-3.5,0-5.5,0.3c-1.9,0.3-3.6,1.5-5.2,1.6c-1.6,0.1-3.5-0.7-5.5-0.7c-0.6,0-1.1,0.5-1.1,1.1c0,0.6,0.5,1.1,1.1,1.1
	C42.9,59.3,44.8,60.1,46.8,60L46.8,60z"/>
<path class="st1" d="M34.1,28.8l0.6-0.6c1.1,1.8,3.6,3.1,6.5,3.1c2.9,0,5.4-1.2,6.5-3.1l0.6,0.6c0.4,0.4,1.2,0.4,1.6,0
	c0.4-0.4,0.4-1.2,0-1.6l-1.9-1.9c-0.3-0.3-0.8-0.4-1.2-0.2c-0.4,0.2-0.7,0.6-0.7,1c0,1.6-2.2,2.9-4.8,2.9c-2.6,0-4.8-1.3-4.8-2.9
	c0-0.5-0.3-0.9-0.7-1c-0.4-0.2-0.9-0.1-1.2,0.2l-1.9,1.9c-0.4,0.4-0.4,1.2,0,1.6C32.9,29.3,33.6,29.3,34.1,28.8L34.1,28.8z"/>
<path class="st1" d="M37.7,20.1v3.5c0,0.6,0.5,1.1,1.1,1.1c0.6,0,1.1-0.5,1.1-1.1v-3.5c0-0.6-0.5-1.1-1.1-1.1
	C38.2,19,37.7,19.5,37.7,20.1z"/>
<path class="st1" d="M44.6,23.6v-3.5c0-0.6-0.5-1.1-1.1-1.1c-0.6,0-1.1,0.5-1.1,1.1v3.5c0,0.6,0.5,1.1,1.1,1.1
	C44.1,24.7,44.6,24.2,44.6,23.6z"/>
<path class="st0" d="M42.3,9.5L42.3,9.5c0-0.9-0.3-1.7-0.9-2.3c-0.6-0.6-1.4-0.9-2.2-0.8c-10.8,0.4-17.9,3.8-22,6.5
	c-0.7,0.5-1.2,1.2-1.3,2c-0.1,0.8,0.1,1.7,0.6,2.3l0.1,0.1c1,1.2,2.8,1.5,4.1,0.6c3.4-2.3,9.4-5.1,18.8-5.5
	C41,12.5,42.3,11.2,42.3,9.5L42.3,9.5z M40,9.5c0,0.4-0.3,0.8-0.7,0.8c-9.9,0.3-16.3,3.4-20,5.9c-0.3,0.2-0.8,0.2-1-0.2l-0.1-0.1
	c-0.1-0.2-0.2-0.4-0.2-0.6c0-0.2,0.1-0.4,0.3-0.5C22.2,12.2,29,9,39.2,8.7c0.2,0,0.4,0.1,0.5,0.2C39.9,9,40,9.2,40,9.5L40,9.5z"/>
<path class="st0" d="M13.9,20.2L13.9,20.2c-0.8-0.6-1.7-0.8-2.5-0.6c-0.8,0.2-1.6,0.7-2,1.4c-1.2,1.9-1.9,3.9-2.3,5.9
	c-0.2,0.9,0.1,1.8,0.7,2.5c0.6,0.7,1.4,1.1,2.3,1.1h0.1c1.5,0,2.7-1,3-2.5c0.2-1.2,0.7-2.5,1.5-3.8C15.5,22.8,15.1,21.1,13.9,20.2z
	 M12.7,23c-0.9,1.5-1.5,3.1-1.8,4.6c-0.1,0.4-0.4,0.6-0.7,0.6h-0.1c-0.3,0-0.5-0.2-0.6-0.3c-0.1-0.1-0.2-0.3-0.2-0.6
	c0.3-1.7,1-3.4,2-5.2c0.2-0.3,0.4-0.3,0.5-0.4c0,0,0.1,0,0.2,0c0.1,0,0.3,0,0.5,0.2l0.1,0.1C12.8,22.2,12.9,22.7,12.7,23z"/>
<path class="st0" d="M4.1,46C3.5,46,3,46.5,3,47.1v10.2C3,63.5,7,69.2,14.4,73.5c7.2,4.2,16.7,6.4,26.7,6.4s19.6-2.3,26.7-6.4
	c7.4-4.3,11.4-10,11.4-16.2c0-2.7,0-24.9,0-28c0-6.6-3.7-13.2-10-18.2c-5-3.9-14-8.6-28.1-8.6S18,7.2,13,11.1
	c-6.4,5-10,11.6-10,18.2v12.5C3,42.4,3.5,43,4.1,43s1.1-0.5,1.1-1.1v-4.7c1.9,3.1,5,6,9.1,8.4c7.2,4.2,16.7,6.4,26.7,6.4
	c8.6,0,17.1-1.7,23.8-4.9c0.6-0.3,0.8-0.9,0.5-1.5C65.2,45,64.5,44.7,64,45c-6.4,3-14.5,4.7-22.8,4.7c-9.7,0-18.8-2.2-25.6-6.1
	C8.9,39.7,5.3,34.6,5.3,29.3c0-5.9,3.3-11.8,9.2-16.4c4.7-3.7,13.2-8.2,26.7-8.2s22,4.4,26.7,8.2c5.8,4.6,9.2,10.6,9.2,16.4
	c0,4.8-3,9.5-8.6,13.2c-0.5,0.3-0.7,1.1-0.3,1.6c0.3,0.5,1.1,0.7,1.6,0.3c3.2-2.2,5.7-4.6,7.3-7.3v6.8c-0.4,0.8-0.9,1.6-1.2,2.5
	c-0.6,1.5-0.5,3.2-1.3,4.2c-0.7,0.9-2.4,1.4-3.8,2.6c-1.3,1.1-2,2.7-3.1,3.4c-0.5,0.3-0.7,1-0.4,1.6c0.3,0.5,1,0.7,1.6,0.4
	c1.6-1,2.4-2.7,3.4-3.6c1.1-1,3-1.5,4.1-2.9c0.3-0.4,0.6-0.9,0.7-1.4v0.6c0,5.3-3.7,10.4-10.3,14.2c-6.8,4-15.9,6.1-25.6,6.1
	c-5.3,0-10.5-0.7-15.2-1.9c-0.6-0.2-1.2,0.2-1.4,0.8s0.2,1.2,0.8,1.4c5,1.3,10.3,2,15.8,2c10.1,0,19.6-2.3,26.7-6.4
	c4-2.3,7.1-5.1,9-8.2c-0.7,4.6-4.3,9-10.1,12.4c-6.8,4-15.9,6.1-25.6,6.1s-18.8-2.2-25.6-6.1c-5.9-3.4-9.4-7.8-10.1-12.4
	c2.8,4.4,7.8,8.3,14.7,10.9c0.6,0.2,1.2-0.1,1.5-0.6c0.2-0.6-0.1-1.2-0.6-1.5C11.1,64.1,5.3,57.8,5.3,51.1v-4
	C5.3,46.5,4.7,46,4.1,46L4.1,46z"/>
</svg>
