<svg width="82" height="82" viewBox="0 0 82 82" fill="none" xmlns="http://www.w3.org/2000/svg">
<g clip-path="url(#clip0_1002_2527)">
<path d="M1.92188 56.7274C1.92188 53.3642 1.92188 50.0169 1.92188 46.6536C2.37031 45.8208 3.05898 45.5325 4.00391 45.5645C5.57344 45.6286 7.15898 45.5806 8.72852 45.5806C8.96875 45.5806 9.19297 45.5485 9.48125 45.5325C6.64648 41.1282 8.42422 36.6759 11.4031 34.6739C12.9566 33.6329 14.6863 33.1524 16.5441 33.4247C20.1156 33.9372 22.2457 36.1153 23.2867 39.7349C23.4629 39.3024 23.543 39.1263 23.591 38.9501C23.9914 37.5247 24.7441 36.2915 25.8652 35.3306C26.2336 35.0103 26.3617 34.706 26.3617 34.2255C26.3457 29.1645 26.3457 24.1036 26.3457 19.0427C26.3457 17.7454 26.9062 17.2009 28.2035 17.2009C31.4867 17.2009 34.7699 17.2009 38.0371 17.2009C38.4855 17.2009 38.934 17.2009 39.4625 17.2009C39.4625 16.6243 39.4625 16.1278 39.4625 15.6153C39.5105 9.46533 43.4984 4.18018 49.4082 2.48252C50.1609 2.2583 50.9297 2.11416 51.6824 1.93799C52.7074 1.93799 53.7164 1.93799 54.7414 1.93799C54.8855 1.98604 55.0137 2.06611 55.1578 2.08213C60.9234 2.89893 65.568 7.27119 66.657 13.0048C66.9133 14.3661 66.9293 15.7595 67.0734 17.2169C67.3137 17.2169 67.5859 17.2169 67.8582 17.2169C71.2695 17.2169 74.6809 17.2169 78.0762 17.2169C79.5496 17.2169 80.0781 17.7294 80.0781 19.1708C80.0781 37.861 80.0781 56.5513 80.0781 75.2575C80.0781 78.1884 78.1402 80.1103 75.1934 80.1103C52.4512 80.1103 29.725 80.1103 6.98281 80.1103C5.47734 80.1103 4.98086 79.6138 4.98086 78.0923C4.98086 71.654 4.98086 65.2157 4.98086 58.7935C4.98086 58.4892 4.98086 58.2009 4.98086 57.8485C3.7957 57.7685 2.54648 58.0407 1.92188 56.7274ZM63.8383 27.2587C63.8383 24.8563 63.8383 22.5661 63.8383 20.2759C56.7113 20.2759 49.6645 20.2759 42.5695 20.2759C42.5695 22.6142 42.5695 24.9044 42.5695 27.2587C43.05 27.2587 43.4824 27.2427 43.8988 27.2587C44.8918 27.2747 45.5484 27.8993 45.5645 28.7642C45.5645 29.645 44.9078 30.2856 43.9309 30.3017C41.977 30.3177 40.007 30.3177 38.0531 30.3017C37.0762 30.2856 36.4035 29.629 36.4195 28.7642C36.4355 27.8833 37.1082 27.2907 38.0852 27.2587C38.5336 27.2427 38.982 27.2587 39.4305 27.2587C39.4305 24.8724 39.4305 22.5981 39.4305 20.2759C36.0832 20.2759 32.768 20.2759 29.4367 20.2759C29.4367 24.7122 29.4367 29.0845 29.4367 33.4728C32.784 33.0403 35.4906 34.0653 37.3164 36.9001C39.1422 39.7509 38.902 42.6657 37.0762 45.5806C37.4285 45.5806 37.6688 45.5806 37.925 45.5806C39.6066 45.5806 41.2883 45.5646 42.9539 45.5806C44.027 45.5966 44.6355 46.1731 44.6516 47.2142C44.6676 50.1931 44.6676 53.172 44.6516 56.1349C44.6516 57.1759 44.027 57.7524 42.9699 57.7845C42.5215 57.8005 42.073 57.7845 41.6566 57.7845C41.6566 61.1958 41.6566 64.495 41.6566 67.8102C53.4602 67.8102 65.2156 67.8102 76.9711 67.8102C76.9711 51.9388 76.9711 36.0993 76.9711 20.2919C73.6078 20.2919 70.2926 20.2919 66.9934 20.2919C66.9934 22.6302 66.9934 24.9204 66.9934 27.2587C67.5219 27.2587 68.0023 27.2427 68.4668 27.2587C69.3477 27.3067 69.9723 27.9313 69.9883 28.7481C70.0043 29.5649 69.3797 30.2696 68.5148 30.2856C66.4488 30.3177 64.3988 30.3177 62.3328 30.2856C61.468 30.2696 60.8434 29.581 60.8434 28.7642C60.8434 27.9474 61.468 27.3067 62.3488 27.2587C62.8293 27.2427 63.3098 27.2587 63.8383 27.2587ZM77.0191 70.9653C65.1676 70.9653 53.4121 70.9653 41.6727 70.9653C41.6727 73.0153 41.6727 75.0013 41.6727 77.0192C41.9129 77.0192 42.0891 77.0192 42.2652 77.0192C53.2199 77.0192 64.1746 77.0192 75.1293 77.0192C75.2895 77.0192 75.4336 77.0192 75.5938 77.0032C76.3945 76.9231 76.9871 76.3626 77.0191 75.5778C77.0512 74.0563 77.0191 72.5349 77.0191 70.9653ZM42.5695 17.1368C49.6965 17.1368 56.7754 17.1368 63.8543 17.1368C64.3988 10.3462 59.6102 4.94893 53.1238 4.98096C46.7336 5.01299 41.977 10.4743 42.5695 17.1368ZM27.8191 76.9872C27.8191 70.5649 27.8191 64.1907 27.8191 57.8485C24.7602 57.8485 21.7492 57.8485 18.7543 57.8485C18.7543 64.2548 18.7543 70.613 18.7543 76.9872C21.7812 76.9872 24.7762 76.9872 27.8191 76.9872ZM8.07188 57.8325C8.07188 64.2548 8.07188 70.613 8.07188 76.9712C10.6184 76.9712 13.1168 76.9712 15.6152 76.9712C15.6152 70.5649 15.6152 64.2228 15.6152 57.8325C13.1008 57.8325 10.6184 57.8325 8.07188 57.8325ZM30.9742 57.8325C30.9742 64.2708 30.9742 70.613 30.9742 76.9872C33.5207 76.9872 36.0191 76.9872 38.5176 76.9872C38.5176 70.5649 38.5176 64.2067 38.5176 57.8325C35.9711 57.8325 33.4887 57.8325 30.9742 57.8325ZM15.5992 54.7095C15.5992 52.6595 15.5992 50.6735 15.5992 48.7036C12.0277 48.7036 8.5043 48.7036 5.01289 48.7036C5.01289 50.7376 5.01289 52.7075 5.01289 54.7095C8.55234 54.7095 12.0598 54.7095 15.5992 54.7095ZM30.9742 48.6716C30.9742 50.7216 30.9742 52.7075 30.9742 54.6774C34.5457 54.6774 38.0691 54.6774 41.5605 54.6774C41.5605 52.6435 41.5605 50.6735 41.5605 48.6716C38.0371 48.6716 34.5297 48.6716 30.9742 48.6716ZM18.7543 54.6774C21.8293 54.6774 24.8242 54.6774 27.8191 54.6774C27.8191 52.6274 27.8191 50.6415 27.8191 48.6716C24.7602 48.6716 21.7812 48.6716 18.7543 48.6716C18.7543 50.6895 18.7543 52.6595 18.7543 54.6774ZM15.8074 45.5325C16.4 43.1942 17.7133 41.4485 19.8113 40.2794C19.9555 40.1993 20.0676 39.8149 20.0035 39.6067C19.4109 37.4606 17.0406 36.0353 14.8305 36.4837C12.4441 36.9642 10.8426 39.1103 11.0988 41.4806C11.3711 43.8509 13.4051 45.6286 15.8074 45.5325ZM30.9582 45.5806C32.6879 45.5005 34.1293 44.7478 34.9781 43.0821C35.875 41.3364 35.6828 39.6067 34.4336 38.0853C33.2484 36.6438 31.6949 36.1474 29.8531 36.5317C29.3887 36.6278 29.3887 36.9001 29.3887 37.2524C29.3887 38.854 29.3887 40.4556 29.3887 42.0571C29.3887 42.2493 29.4047 42.4735 29.4848 42.6497C29.9652 43.6106 30.4457 44.5396 30.9582 45.5806ZM19.0586 45.5325C21.9094 45.5325 24.7121 45.5325 27.5309 45.5325C26.9062 43.6587 25.1926 42.5216 23.0945 42.5376C21.3488 42.5376 19.6352 43.8028 19.0586 45.5325Z" fill="#585858"/>
<path d="M73.9762 47.1821C73.9762 49.0879 73.9762 50.9938 73.9762 52.8996C73.9762 54.0207 73.3996 54.7094 72.4867 54.7254C71.5418 54.7414 70.9332 54.0367 70.9332 52.8836C70.9332 49.0239 70.9332 45.1641 70.9332 41.3043C70.9332 40.1832 71.5098 39.4946 72.4227 39.4785C73.3676 39.4625 73.9762 40.1672 73.9762 41.3203C73.9762 43.2742 73.9762 45.2281 73.9762 47.1821Z" fill="#BF0067"/>
<path d="M72.4547 57.8006C73.2715 57.8006 73.9441 58.4732 73.9602 59.29C73.9762 60.1389 73.2715 60.8435 72.4387 60.8435C71.5898 60.8435 70.9012 60.1228 70.9332 59.274C70.9492 58.4572 71.6379 57.7846 72.4547 57.8006Z" fill="#BF0067"/>
</g>
<defs>
<clipPath id="clip0_1002_2527">
<rect width="82" height="82" fill="white"/>
</clipPath>
</defs>
</svg>
