<?xml version="1.0" encoding="utf-8"?>
<!-- Generator: Adobe Illustrator 26.0.0, SVG Export Plug-In . SVG Version: 6.00 Build 0)  -->
<svg version="1.1" id="Layer_1" xmlns="http://www.w3.org/2000/svg" xmlns:xlink="http://www.w3.org/1999/xlink" x="0px" y="0px"
	 viewBox="0 0 82 82" style="enable-background:new 0 0 82 82;" xml:space="preserve">
<style type="text/css">
	.st0{fill:#585858;}
	.st1{fill:#BF0067;}
</style>
<path class="st0" d="M71.1,46c-0.6-0.7-1.4-1.2-2.3-1.7c1-6.5-2.5-12.9-8.6-16.1c1.3-2,1.7-4.3,1-6.5c-0.8-2.5-2.8-4.5-5.2-5.4
	c0-2.6-1.2-6.5-6.9-11c-4.1-3.2-6.4-4.1-7.9-3.1c-0.6,0.4-1.4,1.3-0.8,3.3c0.2,0.9,0.3,1.9,0,2.6c-0.6,1.8-1.6,3.1-2.9,4.2
	c-0.2-0.6-0.5-1.3-0.9-1.9c-1.1-1.7-2.8-2.9-4.7-3.3C30.4,6.9,29,7,27.7,7.5c-0.5-1.4-0.2-2.3,0.5-3.5c0.4-0.7,0.2-1.7-0.5-2.1
	C27,1.5,26,1.7,25.6,2.4c-1.3,2.3-1.5,4.3-0.5,6.7c-2.6,2.4-3.2,6.5-1.2,9.6c0.4,0.6,0.9,1.2,1.5,1.7c-1.5,2.1-2.2,5-1.6,9.3
	c-0.4,0.1-0.8,0.2-1.1,0.4c-3.2,1.2-5.7,3.1-7.2,5.6c-1.5,2.5-2,5.5-1.3,8.7c-0.9,0.5-1.8,1-2.4,1.8c-1.7,1.8-2.1,4.1-1.1,6.4
	l8.2,19.8c1.3,3.1,3.2,7.7,8.1,7.7h5.8c0,0,0,0,0.1,0h17.2c0,0,0,0,0,0s0,0,0,0h5.8c5,0,6.9-4.6,8.1-7.7l8.2-19.8
	C73.2,50.2,72.8,47.8,71.1,46L71.1,46z M43.3,9.2c0.5-1.5,0.3-3,0.1-3.9c0.7,0.3,1.9,1,3.8,2.5c3.9,3,5.8,6,5.7,8.7
	c-0.1,2.5-2.1,4.3-3.7,5.4c-3.8,2.5-11,4.2-17.3,5.7c-1.8,0.4-3.6,0.9-5.2,1.3c-0.5-3.8,0.3-6,1.9-7.6c0.2-0.2,0.5-0.4,0.7-0.6
	c0.2-0.2,0.5-0.4,0.7-0.5c0.6-0.4,1.1-0.7,1.7-1c1.3-0.7,2.7-1.3,4-2c2.1-1.1,4-2.4,5.5-4.2C42.2,11.7,42.8,10.5,43.3,9.2z
	 M31.2,10.2c1.2,0.3,2.2,0.9,2.8,2c0.4,0.6,0.6,1.3,0.7,2c-0.7,0.4-1.4,0.7-2.2,1.1c-1.7,0.8-3.5,1.7-5,2.9c-0.4-0.3-0.8-0.7-1-1.1
	c-1.3-2.1-0.7-4.9,1.3-6.2C28.8,10.2,30,10,31.2,10.2z M23.8,32.9c2.2-0.8,5.4-1.6,8.9-2.4c6.6-1.6,14-3.3,18.2-6.1
	c2.2-1.4,3.7-3.1,4.5-5c1.4,0.7,2.5,1.9,3,3.3c0.5,1.7,0,3.5-1.6,5.1c0,0,0,0,0,0c0,0,0,0,0,0c-3.2,3.2-9.1,5.9-13.8,8.1
	c-0.7,0.3-1.1,1.2-0.8,1.9c0.3,0.8,1.3,1.3,2.1,0.9c4.6-2.1,10.3-4.7,14-8c4.6,2.2,8.4,7,7.8,12.7c-1.7-0.3-3.6-0.2-5.3,0.3
	c-1.9,0.6-3.4,1.8-4.4,3.3c-1.6-2.4-4.3-4-7.4-4c-3.1,0-5.8,1.6-7.4,3.9c-1.6-2.4-4.3-3.9-7.4-3.9c-3.1,0-5.9,1.6-7.4,4
	c-1-1.5-2.5-2.7-4.4-3.3c-1.6-0.5-3.4-0.6-5.1-0.3C15.8,36.4,21.8,33.6,23.8,32.9L23.8,32.9z M27,76.9c-2.5,0-3.7-2-5.3-5.8
	l-8.2-19.8C13,50.1,13.2,49,14,48.1c0.6-0.6,2.4-2,5-1.9c0.8,0,1.6,0.1,2.3,0.4c1.6,0.5,3.6,1.9,4,5.4c0,0,5.7,24.9,5.7,24.9
	L27,76.9L27,76.9z M48.9,76.9H43v-4.9c0-0.8-0.7-1.5-1.5-1.5c-0.8,0-1.5,0.7-1.5,1.5v4.9H34l-5.8-25.2c0.1-3.1,2.7-5.7,5.8-5.7
	c3.2,0,5.8,2.6,5.8,5.8v6.4c0,0.8,0.7,1.5,1.5,1.5s1.5-0.7,1.5-1.5v-6.4c0-3.2,2.6-5.8,5.8-5.8c3.2,0,5.7,2.5,5.8,5.7L48.9,76.9z
	 M69.5,51.3l-8.2,19.8c-1.6,3.8-2.9,5.8-5.3,5.8H52c0,0,5.7-24.8,5.7-24.9c0.4-3.5,2.4-4.9,4-5.4c1.5-0.5,3.3-0.6,5.1,0.2
	c0.9,0.3,1.6,0.8,2.2,1.4C69.8,49,69.9,50.1,69.5,51.3L69.5,51.3z"/>
<path class="st1" d="M41.5,63.6c-0.8,0-1.5,0.7-1.5,1.5v0c0,0.8,0.7,1.5,1.5,1.5c0.8,0,1.5-0.7,1.5-1.5C43,64.3,42.3,63.6,41.5,63.6
	z"/>
</svg>
