<svg width="76" height="76" viewBox="0 0 76 76" fill="none" xmlns="http://www.w3.org/2000/svg">
<path d="M2.79763 38.4366C1.05192 35.6339 1.56442 32.5429 5.60036 32.1905C5.68044 30.9894 5.79255 29.7882 5.8406 28.587C5.85661 28.3468 5.63239 28.0905 5.50427 27.8503C4.59138 26.1046 3.63044 24.3749 2.7656 22.6132C2.28513 21.6362 2.44528 21.3319 3.37419 20.7394C4.68747 19.9226 6.11286 19.394 7.66638 19.298C8.22692 19.2659 8.49919 19.0737 8.73942 18.5772C13.2718 9.38428 20.4629 3.41045 30.4086 0.928029C45.4472 -2.81963 61.2386 5.07608 67.4527 19.33C67.5808 19.6343 67.741 19.9386 67.8211 20.1308C69.807 19.8905 71.6968 19.6823 73.6027 19.4421C74.5156 19.33 74.948 19.7464 75.1402 20.6112C75.957 24.439 74.7719 27.6261 72.1453 30.3808C71.6648 30.8933 71.0562 31.2937 70.5758 31.8062C70.3836 32.0144 70.2074 32.3827 70.2394 32.639C70.3996 33.68 70.6398 34.705 70.8961 35.9062C71.0402 35.9702 71.5047 36.0183 71.809 36.2745C72.4656 36.819 73.1062 37.4116 73.6508 38.0522C74.0031 38.4687 74.2433 39.0292 74.4195 39.5577C74.5316 39.9101 74.5636 40.3265 74.4676 40.6948C72.5777 48.7987 70.6558 56.9026 68.75 65.0226C68.3336 66.8163 67.9172 68.594 67.4687 70.3718C66.7 73.3347 64.2015 75.2886 61.1425 75.2886C45.6715 75.3046 30.2004 75.3046 14.7453 75.2886C11.6543 75.2886 9.13981 73.3347 8.4031 70.2917C6.46521 62.2198 4.55935 54.1479 2.6695 46.0601C2.54138 45.4995 2.33317 45.0671 1.82067 44.6987C0.331221 43.6257 0.0269244 41.88 1.05192 40.3585C1.48435 39.6538 2.157 39.1093 2.79763 38.4366ZM61.0304 23.414C58.0836 15.1339 49.307 7.35029 37.6316 7.51045C28.1824 7.63858 17.58 14.4772 15.6742 21.5722C16.9394 22.6292 18.0926 24.0065 20.0785 23.0776C20.1906 20.9796 20.3988 18.8175 22.7211 17.8726C25.0593 16.9276 26.725 18.4171 28.3105 19.8425C29.9441 18.353 31.6097 16.9437 33.932 17.9206C36.2703 18.8976 36.3984 21.1397 36.5105 23.2858C37.0711 23.3179 37.5515 23.3019 38.032 23.3819C39.6656 23.6062 41.2351 24.1507 41.7957 25.8323C42.164 26.9054 42.7566 27.0175 43.6535 27.0015C44.134 25.1276 44.7906 23.3499 46.9207 22.9495C49.0668 22.5491 50.316 24.0546 51.4531 25.5761C52.6222 24.8233 53.7914 24.2628 55.1527 24.423C56.5781 24.5831 57.459 25.464 57.8593 26.489C58.8523 25.512 59.8773 24.519 61.0304 23.414ZM22.3047 42.1522C22.8812 43.4175 23.8902 43.8179 25.0914 43.1132C25.8761 42.6647 26.5168 41.944 27.1734 41.2874C28.0383 40.4226 28.4707 40.4226 29.2715 41.2874C29.848 41.912 30.4246 42.5526 31.1293 43.0011C32.5386 43.93 33.916 43.4015 34.3324 41.7679C34.5246 40.9991 34.5086 40.1503 34.4925 39.3335C34.4445 37.844 34.6527 37.6679 36.1101 37.748C36.9429 37.796 37.8238 37.796 38.6246 37.5878C40.114 37.2034 40.6426 35.8581 39.8738 34.5448C39.5054 33.9202 39.009 33.3437 38.4804 32.8632C37.055 31.5499 37.039 31.4058 38.4965 30.1565C38.9609 29.7562 39.4093 29.2917 39.7297 28.7792C40.8027 27.0655 40.114 25.544 38.0961 25.2718C37.3273 25.1597 36.5265 25.2397 35.7258 25.2558C34.7328 25.2718 34.4765 25.0315 34.4925 24.0065C34.5086 23.1897 34.5886 22.3569 34.4925 21.5562C34.2683 19.7304 32.6828 18.9776 31.1453 19.9706C30.4886 20.387 29.9121 20.9636 29.3996 21.5562C28.5027 22.5651 28.0863 22.5651 27.1734 21.5401C26.6289 20.9315 26.0363 20.339 25.3636 19.9065C23.9222 18.9937 22.5129 19.6183 22.1445 21.2839C21.9843 22.0206 22.0004 22.8054 22.0484 23.5581C22.1445 24.9995 21.8082 25.2878 20.3828 25.2237C19.4379 25.1757 18.4609 25.2718 17.564 25.528C16.5711 25.8003 16.1707 26.5851 16.3629 27.578C16.6031 28.7792 17.3078 29.6921 18.4129 30.2046C19.582 30.7331 20.2867 31.5819 20.4468 32.8151C20.5429 33.6159 20.4629 34.4327 20.4629 35.2335C24.723 36.3706 25.3636 39.4136 22.3047 42.1522ZM66.0113 20.8515C62.3277 11.194 51.8695 1.76084 37.6316 1.88897C23.0574 2.03311 13.5601 11.9628 10.5492 19.298C11.6863 19.6823 12.8074 20.0667 13.9125 20.4511C19.4539 10.6815 27.6699 5.25225 39.009 5.7167C50.348 6.18115 58.0836 12.2831 62.8082 22.421C63.8332 21.9245 64.8902 21.396 66.0113 20.8515ZM5.88864 47.2452C5.90466 48.8628 6.92966 49.5515 8.38708 48.8628C8.88356 48.6226 9.332 48.2542 9.79646 47.9339C10.6453 47.3573 11.1258 47.4534 11.6703 48.3343C11.9906 48.8628 12.2789 49.4394 12.6953 49.8718C13.6242 50.8647 14.6972 50.7206 15.2898 49.5034C15.5941 48.8948 15.6582 48.1581 15.8023 47.4694C15.9945 46.5405 16.3789 46.2683 17.2918 46.4765C17.8683 46.6046 18.4449 46.8128 19.0215 46.8608C20.5269 46.989 21.3117 45.8999 20.6871 44.5226C20.4148 43.946 19.9984 43.4175 19.6461 42.889C19.1816 42.1683 19.2457 41.7198 19.9664 41.2554C20.4789 40.919 21.0715 40.6628 21.5519 40.2784C22.705 39.3655 22.5609 38.0522 21.2156 37.4597C20.6711 37.2194 20.0144 37.1554 19.4218 37.0433C18.3328 36.8351 18.0926 36.4827 18.3488 35.4097C18.4769 34.8651 18.6691 34.3206 18.7011 33.7601C18.7972 32.2546 17.7082 31.4858 16.3308 32.0944C15.8984 32.2866 15.498 32.5589 15.1136 32.8472C13.8965 33.7601 13.5601 33.68 12.8234 32.3827C12.5191 31.8542 12.1347 31.3257 11.6863 30.9413C10.7734 30.1726 9.92458 30.3487 9.4281 31.4218C9.13982 32.0464 8.99568 32.7511 8.85153 33.4397C8.64333 34.5128 8.33903 34.737 7.29802 34.4808C6.75349 34.3526 6.19294 34.1765 5.64841 34.1284C4.09489 34.0003 3.35817 35.0093 3.95075 36.4507C4.15896 36.9312 4.44724 37.4116 4.76755 37.812C5.5363 38.789 5.45622 39.2534 4.38317 39.894C3.91872 40.1663 3.43825 40.4226 3.03786 40.7749C1.91677 41.7839 2.157 43.0972 3.58239 43.6097C4.11091 43.8019 4.68747 43.8499 5.232 43.946C6.30505 44.1382 6.57731 44.5706 6.30505 45.6116C6.16091 46.1562 6.03278 46.7007 5.88864 47.2452ZM45.3511 40.4226C45.9117 40.5026 46.4562 40.5507 46.9687 40.6788C48.6023 41.0792 49.5472 42.5366 49.2109 44.0421C48.9386 45.1952 49.0668 45.4995 50.0437 46.2042C50.9726 46.8769 51.8695 46.7647 52.398 45.7558C52.7824 45.019 52.9746 44.1702 53.1347 43.3534C53.359 42.2163 53.6793 41.9761 54.8164 42.2964C55.2808 42.4245 55.7453 42.5526 56.2257 42.6167C57.0586 42.7128 57.9234 42.7448 58.4359 41.912C58.9484 41.0952 58.7082 40.2784 58.2437 39.5097C57.9554 39.0292 57.5711 38.5968 57.2668 38.1163C56.8343 37.4276 56.9465 36.9952 57.6351 36.5628C58.1636 36.2425 58.7242 35.9542 59.2047 35.5698C59.8613 35.0413 60.3898 34.3687 60.1175 33.4558C59.8453 32.5749 59.0925 32.2226 58.2597 32.0144C58.0996 31.9663 57.9234 31.9663 57.7472 31.9503C56.1777 31.8062 55.2808 31.4538 56.0496 29.4519C56.434 28.4589 56.6101 27.2417 55.5211 26.521C54.448 25.8003 53.4711 26.4249 52.5742 27.0655C50.8445 28.3147 50.8765 28.3147 49.7554 26.489C49.1789 25.5761 48.5062 24.5351 47.273 24.7433C45.9757 24.9515 45.6715 26.1847 45.5433 27.2737C45.2871 29.4358 44.8386 29.4358 43.205 28.8433C43.0929 28.8112 42.9808 28.7792 42.8687 28.7632C42.1961 28.603 41.6836 28.6831 41.4113 29.4679C41.2672 29.8843 40.9789 30.2847 40.6265 30.5569C39.9218 31.1015 40.082 31.5819 40.5625 32.1745C41.6195 33.4878 42.3883 34.8972 41.9879 36.7229C44.3902 36.8511 45.0949 38.4526 45.3511 40.4226ZM31.3375 62.1237C31.3375 63.6612 31.3375 65.1667 31.3375 66.7523C32.2504 66.7523 33.0832 66.7523 33.932 66.7523C33.932 67.3929 33.932 67.9374 33.932 68.6101C33.0191 68.6101 32.1703 68.6101 31.3054 68.6101C31.3054 70.2757 31.3054 71.8132 31.3054 73.3347C35.5976 73.3347 39.8418 73.3347 44.1019 73.3347C44.1019 67.505 44.1019 61.7554 44.1019 56.1339C43.2691 56.0698 42.5004 56.0218 41.7316 55.9257C41.0429 55.8456 40.3703 55.6534 39.6816 55.5894C38.9449 55.5413 38.5765 55.8776 38.5765 56.6944C38.6086 60.314 38.5926 63.9335 38.5926 67.537C38.5926 67.8413 38.5926 68.1456 38.5926 68.4499C37.9199 68.4499 37.3433 68.4499 36.7027 68.4499C36.7027 66.2878 36.7027 64.2058 36.7027 62.0917C34.8769 62.1237 33.1152 62.1237 31.3375 62.1237ZM51.5011 55.6694C49.6273 55.6694 47.8496 55.6694 46.0718 55.6694C46.0718 59.369 46.0718 63.0046 46.0718 66.7362C49.4191 66.7362 52.7183 66.7362 56.0175 66.7362C56.0175 67.3929 56.0175 67.9374 56.0175 68.594C52.6863 68.594 49.3871 68.594 46.0558 68.594C46.0558 70.2276 46.0558 71.7812 46.0558 73.3507C50.332 73.3507 54.5922 73.3507 58.8363 73.3507C58.8363 69.571 58.8363 65.8554 58.8363 62.1718C58.7242 62.1237 58.6761 62.0917 58.6281 62.0917C57.1867 62.0757 55.7453 62.0757 54.3039 62.0757C51.341 62.0597 51.4851 62.428 51.5011 59.305C51.5011 58.1038 51.5011 56.9026 51.5011 55.6694ZM12.1508 55.6214C10.357 55.6214 8.62732 55.6214 6.80153 55.6214C7.18591 57.2069 7.53825 58.6964 7.90661 60.2499C9.38005 60.2499 10.7414 60.2499 12.1508 60.2499C12.1508 60.8745 12.1508 61.4351 12.1508 62.0757C10.8855 62.0757 9.65232 62.0757 8.32302 62.0757C8.70739 63.6933 9.05974 65.1827 9.4281 66.7362C10.357 66.7362 11.2218 66.7362 12.1187 66.7362C12.1187 67.3769 12.1187 67.9534 12.1187 68.6101C11.35 68.6101 10.6613 68.6101 9.95661 68.6101C10.1968 71.4769 12.1988 73.5269 14.5691 73.3347C14.5691 66.3679 14.5691 59.4011 14.5691 52.3702C12.5832 52.5624 11.398 51.3933 10.341 49.9358C8.88357 50.8167 7.3781 51.3772 5.60036 50.5605C5.87263 51.7296 6.11286 52.7226 6.36911 53.7636C8.32302 53.7636 10.2129 53.7636 12.1508 53.7636C12.1508 54.3722 12.1508 54.9167 12.1508 55.6214ZM36.4304 39.6858C36.4144 39.894 36.3984 40.0062 36.3984 40.1183C36.3343 42.3284 35.8379 44.2663 33.5156 45.2112C33.3715 45.2753 33.2754 45.9159 33.4035 46.0601C33.98 46.6687 33.932 47.1651 33.3554 47.7257C32.955 48.1101 32.5547 48.5265 32.2664 49.0069C31.7539 49.8878 32.0261 50.4804 33.0031 50.7046C33.4836 50.8167 34.0121 50.8167 34.5086 50.7526C35.6937 50.6085 36.014 50.8968 36.014 52.13C36.014 52.6905 36.0621 53.2671 36.2383 53.7956C36.4785 54.5323 37.039 54.7726 37.7117 54.3562C38.2402 54.0198 38.6886 53.5233 39.1211 53.0429C39.7136 52.3862 40.1941 52.3382 40.8187 52.9468C41.2031 53.3151 41.5715 53.7155 42.0199 54.0038C42.9648 54.5964 43.6855 54.2761 43.8457 53.171C43.9097 52.7065 43.8937 52.2101 43.8457 51.7456C43.7656 50.6085 44.0218 50.3362 45.1429 50.3202C45.7035 50.3202 46.28 50.2722 46.8086 50.128C47.6093 49.8878 47.8656 49.2472 47.4011 48.5425C47.0648 48.03 46.5843 47.6136 46.1359 47.1972C45.4793 46.6046 45.4632 46.1401 46.0558 45.4835C46.4883 45.019 46.9207 44.5226 47.241 43.978C47.6093 43.3374 47.3371 42.7608 46.6484 42.5847C46.0718 42.4245 45.4152 42.4085 44.8226 42.4565C43.7336 42.5526 43.3972 42.2483 43.4132 41.1433C43.4293 40.6147 43.3972 40.0542 43.2531 39.5577C42.9968 38.6608 42.3402 38.4046 41.5554 38.9331C41.059 39.2854 40.6586 39.7659 40.2422 40.2304C39.7297 40.7909 39.1691 40.919 38.7367 40.3425C38.1121 39.4937 37.3273 39.6058 36.4304 39.6858ZM29.8 44.4265C26.5968 46.989 23.8422 50.064 21.1355 53.2351C20.623 52.8347 20.1746 52.4663 19.598 52.0019C22.0804 49.3753 24.4828 46.8128 26.789 44.3464C26.2765 44.5706 25.6519 44.939 24.9793 45.0991C24.2906 45.2593 23.5539 45.2272 22.8492 45.2753C22.657 47.2292 21.8883 48.4144 20.2226 48.5585C18.9734 48.6706 18.4129 49.3272 17.9804 50.2562C17.564 51.121 17.1797 52.0019 16.9554 52.9308C16.491 54.8046 16.6832 56.6624 17.484 58.4401C24.5789 56.6624 30.5047 51.137 31.3054 45.1632C30.825 44.939 30.3445 44.6987 29.8 44.4265ZM60.2617 42.7128C59.9894 43.0171 59.7812 43.3694 59.4929 43.5456C58.3398 44.2183 58.3558 45.3554 58.3238 46.4444C58.2918 47.4534 58.9804 47.8858 59.9254 47.5175C60.3898 47.3413 60.8062 47.021 61.2226 46.7327C62.1996 46.0601 62.584 46.1562 63.1765 47.1491C63.4488 47.5976 63.7531 48.062 64.1375 48.4144C64.8422 49.055 65.4988 48.9429 65.9152 48.1101C66.1554 47.6136 66.2996 47.053 66.3797 46.5085C66.5558 45.4675 66.8922 45.1952 67.9332 45.4355C68.3976 45.5315 68.8941 45.7718 69.3265 45.7077C69.807 45.6276 70.3836 45.3714 70.6398 45.003C70.832 44.7147 70.6398 44.1062 70.4797 43.6897C70.3195 43.2894 69.9351 42.969 69.7109 42.5847C69.2465 41.7999 69.4386 41.3034 70.2074 40.839C70.6879 40.5507 71.1843 40.2464 71.5527 39.846C72.2093 39.1573 72.0812 38.4847 71.2324 38.0683C70.7359 37.828 70.1754 37.6999 69.6308 37.6038C68.5578 37.4276 68.2855 37.0272 68.5738 35.9702C68.7019 35.5058 68.8461 35.0413 68.8461 34.5608C68.8461 33.3757 67.9011 32.8472 66.8761 33.4397C66.4597 33.68 66.1074 34.0163 65.691 34.2565C64.9062 34.705 64.3937 34.5288 63.9613 33.744C63.7211 33.3116 63.4488 32.8632 63.0965 32.5108C62.7281 32.1265 62.2636 31.8382 61.6871 32.1905C62.7441 34.8171 61.3187 36.4026 59.3808 37.812C59.573 38.1163 59.7492 38.3886 59.9254 38.6769C61.7351 36.3386 64.1695 35.8421 65.9793 37.3796C67.789 38.9011 67.9492 41.3515 66.3957 43.0972C65.1144 44.5546 62.5039 45.1151 60.2617 42.7128ZM53.407 55.5894C53.407 57.1909 53.407 58.6483 53.407 60.1538C55.2328 60.1538 57.0265 60.1538 58.9004 60.1538C58.9004 59.8015 58.9004 59.4972 58.9004 59.1929C58.9004 56.3741 58.8683 53.5394 58.9164 50.7206C58.9324 49.9358 58.8523 49.3753 57.9715 49.1831C57.6992 49.119 57.3949 48.8788 57.2508 48.6386C56.9144 48.1101 56.482 47.9499 55.8894 48.03C55.6812 48.062 55.473 47.998 55.2648 47.9659C55.2648 47.3413 55.2648 46.7968 55.2648 46.2202C55.6652 46.1882 56.0175 46.1401 56.4019 46.1081C56.434 45.7397 56.466 45.4034 56.498 45.0831C55.9375 44.8749 55.457 44.6987 54.9605 44.5226C53.8554 48.4144 51.6933 49.055 49.355 48.1101C49.5953 49.1671 49.7074 50.2562 48.8265 50.9608C48.0418 51.5854 47.0648 51.9698 46.0879 52.4983C46.0879 52.7706 46.0879 53.2351 46.0879 53.6995C47.9136 53.6995 49.6754 53.6995 51.5492 53.6995C51.5492 52.178 51.5492 50.6886 51.5492 49.2312C52.2058 49.2312 52.7664 49.2312 53.391 49.2312C53.391 50.7366 53.391 52.194 53.391 53.7636C54.3199 53.7636 55.1847 53.7636 56.0336 53.7636C56.0336 54.4202 56.0336 54.9808 56.0336 55.6054C55.1527 55.5894 54.3199 55.5894 53.407 55.5894ZM70.0793 26.7772C68.0133 28.1386 66.0113 29.4519 64.0093 30.7651C64.4418 31.2456 64.8582 31.694 65.1785 32.0464C67.757 31.5499 69.855 30.3487 71.4726 28.3308C73.1222 26.2808 73.875 23.9905 73.3625 21.364C65.9793 21.38 59.6691 26.1687 58.2918 30.0925C59.9734 30.8452 59.9894 30.8612 61.4949 29.9804C64.0093 28.4909 66.5078 26.9694 69.0863 25.4159C69.3265 25.7362 69.6468 26.1847 70.0793 26.7772ZM16.5711 60.6823C16.5711 62.5722 16.5711 64.6062 16.5711 66.6562C20.8633 66.6562 25.0914 66.6562 29.3355 66.6562C29.3355 65.1187 29.3355 63.6292 29.3355 62.0757C26.3086 62.0757 23.3297 62.0757 20.3347 62.0757C20.3347 61.419 20.3347 60.8425 20.3347 60.1858C20.9113 60.1858 21.4398 60.1858 21.9363 60.1858C21.9363 59.7214 21.9363 59.337 21.9363 58.9847C20.1265 59.5452 18.3648 60.1058 16.5711 60.6823ZM30.6008 51.7616C28.9992 54.1159 26.789 56.1339 24.1625 57.7034C24.0183 57.7835 23.8742 57.9917 23.8742 58.1519C23.8422 58.8245 23.8582 59.4812 23.8582 60.1378C25.764 60.1378 27.5578 60.1378 29.4156 60.1378C29.4156 58.1519 29.4156 56.246 29.4156 54.2921C30.0402 54.2921 30.6008 54.2921 31.2574 54.2921C31.2574 56.262 31.2574 58.1999 31.2574 60.1698C33.1312 60.1698 34.8929 60.1698 36.7508 60.1698C36.7508 59.1128 36.7347 58.1038 36.7668 57.0948C36.7828 56.5983 36.6547 56.3581 36.1422 56.198C35.2933 55.9097 34.7648 55.237 34.4765 54.3882C34.3004 53.8597 34.2043 53.3151 34.1082 52.9468C32.907 52.5464 31.8019 52.162 30.6008 51.7616ZM29.3836 73.3827C29.3836 72.0534 29.3355 70.7562 29.3996 69.4749C29.4316 68.7542 29.1754 68.578 28.4867 68.578C24.7551 68.6101 21.0394 68.594 17.3078 68.594C17.0675 68.594 16.8113 68.6261 16.555 68.6421C16.555 70.2597 16.555 71.8132 16.555 73.3827C20.8472 73.3827 25.0754 73.3827 29.3836 73.3827ZM4.60739 22.2608C5.61638 24.8233 7.0738 27.0976 8.9156 29.0835C11.4461 27.8823 12.9195 29.3397 14.3289 31.0534C14.7773 30.7972 15.2097 30.5569 15.514 30.3808C14.7613 27.3538 11.9425 26.6651 9.82849 25.1116C10.1008 24.5831 10.373 24.0706 10.6773 23.494C12.0226 24.2948 13.3039 25.0796 14.5531 25.8323C14.9855 25.2718 15.4019 24.7433 15.8023 24.2147C12.9675 21.1077 7.42614 20.1147 4.60739 22.2608ZM60.8222 73.3667C63.5929 73.5429 65.8832 71.3487 65.8031 68.562C65.0023 68.562 64.2015 68.562 63.3847 68.562C63.3847 67.9054 63.3847 67.3608 63.3847 66.7202C64.2496 66.7202 65.0504 66.7362 65.8672 66.7042C66.0754 66.6882 66.4117 66.544 66.4437 66.3999C66.8121 64.9905 67.1324 63.5812 67.4847 62.1237C65.1945 62.1237 63.0324 62.1237 60.8222 62.1237C60.8222 65.8874 60.8222 69.603 60.8222 73.3667ZM66.2195 55.6534C64.3777 55.6534 62.616 55.6534 60.8222 55.6534C60.8222 57.1749 60.8222 58.6644 60.8222 60.1538C62.648 60.1538 64.4097 60.1538 66.2195 60.1538C66.2195 58.6483 66.2195 57.1909 66.2195 55.6534ZM66.2355 50.4804C64.2175 51.153 62.9203 50.1601 61.7672 48.5585C61.3988 48.9269 60.8543 49.2151 60.8222 49.5354C60.7261 50.8968 60.7742 52.2741 60.7742 53.6675C62.648 53.6675 64.4258 53.6675 66.2355 53.6675C66.2355 52.6105 66.2355 51.6015 66.2355 50.4804ZM68.1574 58.7124C68.2054 58.7284 68.2375 58.7444 68.2855 58.7605C69.1824 54.9808 70.0633 51.2011 70.9441 47.4694C69.9511 47.5175 69.0703 47.5495 68.1574 47.5976C68.1574 51.2651 68.1574 54.9808 68.1574 58.7124ZM65.6109 40.4065C65.5949 39.2854 64.682 38.3726 63.5449 38.3886C62.4238 38.3886 61.4949 39.3175 61.4949 40.4386C61.4949 41.5757 62.4879 42.5526 63.625 42.5206C64.73 42.4886 65.6109 41.5437 65.6109 40.4065Z" fill="#585858"/>
<path d="M33.5316 27.898C33.5476 30.8289 31.2093 33.1992 28.3105 33.2312C25.4277 33.2633 22.9933 30.877 22.9773 27.9941C22.9613 25.0152 25.3156 22.6289 28.2625 22.6289C31.1773 22.6289 33.5316 24.9672 33.5316 27.898ZM31.6738 27.9141C31.6738 26.0242 30.1843 24.5188 28.2945 24.4867C26.3886 24.4707 24.8351 26.0082 24.8351 27.9301C24.8351 29.8359 26.4047 31.3895 28.3105 31.3574C30.1843 31.3414 31.6738 29.8039 31.6738 27.9141Z" fill="#BF0067"/>
<path d="M12.3109 41.4154C9.82849 41.3994 7.84256 39.3814 7.87459 36.899C7.90662 34.4646 9.89256 32.5107 12.359 32.5267C14.8414 32.5427 16.8273 34.5607 16.7953 37.0271C16.7472 39.4935 14.7613 41.4314 12.3109 41.4154ZM12.359 39.5416C13.7683 39.5255 14.9054 38.3724 14.9054 36.931C14.9054 35.5216 13.7363 34.3845 12.2949 34.4005C10.8695 34.4166 9.7324 35.5697 9.74842 36.9951C9.76443 38.4205 10.9336 39.5576 12.359 39.5416Z" fill="#BF0067"/>
<path d="M54.0316 32.1902C54.0156 34.8008 51.8375 36.9469 49.259 36.9148C46.6484 36.8828 44.5344 34.7367 44.5344 32.1262C44.5504 29.5156 46.6805 27.4016 49.323 27.4176C51.9336 27.4336 54.0316 29.5637 54.0316 32.1902ZM49.275 29.2914C47.6894 29.2914 46.4082 30.5406 46.4082 32.1262C46.3922 33.7277 47.7055 35.057 49.307 35.057C50.8605 35.057 52.1578 33.7598 52.1738 32.2062C52.1738 30.5887 50.8926 29.2914 49.275 29.2914Z" fill="#BF0067"/>
<path d="M35.8379 43.0809C35.8379 40.9348 37.5516 39.1891 39.6977 39.1731C41.8277 39.1731 43.5734 40.9028 43.5895 43.0489C43.6055 45.179 41.8437 46.9567 39.7297 46.9567C37.5836 46.9727 35.8539 45.227 35.8379 43.0809ZM37.7117 43.0809C37.7117 44.218 38.6246 45.1149 39.7617 45.0989C40.8348 45.0829 41.7316 44.17 41.7316 43.0809C41.7316 41.9758 40.7867 41.0469 39.6656 41.0629C38.5766 41.0629 37.7117 41.9598 37.7117 43.0809Z" fill="#BF0067"/>
</svg>
