<svg width="82" height="82" viewBox="0 0 82 82" fill="none" xmlns="http://www.w3.org/2000/svg">
<path d="M8.11347 44.7486C6.60957 44.7486 5.19589 44.7336 3.76718 44.7486C3.1957 44.7486 2.68437 44.6734 2.36855 44.132C2.05273 43.5756 2.29336 43.1094 2.5791 42.6281C4.41386 39.6955 6.24863 36.7779 8.06835 33.8303C8.44433 33.2287 8.91054 32.958 9.63242 32.958C29.0178 32.973 48.4031 32.973 67.7885 32.958C68.5404 32.958 69.0217 33.2287 69.3976 33.8604C71.2023 36.7779 73.0221 39.6955 74.8418 42.598C75.1426 43.0643 75.3982 43.5305 75.0824 44.102C74.7666 44.6885 74.2252 44.7486 73.6387 44.7486C72.24 44.7336 70.8414 44.7486 69.3375 44.7486C69.3375 45.0645 69.3375 45.3502 69.3375 45.6359C69.3375 54.9602 69.3375 64.2844 69.3375 73.6086C69.3375 75.0674 69.0217 75.3832 67.5779 75.3832C48.343 75.3832 29.108 75.3832 9.858 75.3832C8.36914 75.3832 8.06835 75.0824 8.06835 73.5635C8.06835 64.2844 8.06835 55.0053 8.06835 45.7262C8.11347 45.4555 8.11347 45.1547 8.11347 44.7486ZM10.5197 44.7486C10.5197 54.2232 10.5197 63.6076 10.5197 72.977C16.806 72.977 23.0623 72.977 29.2584 72.977C29.2584 61.457 29.2584 49.9973 29.2584 38.357C28.1305 40.1617 27.0476 41.801 26.0701 43.5004C25.5437 44.4178 24.9121 44.8238 23.8293 44.7637C22.1148 44.6734 20.4004 44.7336 18.6709 44.7336C15.9789 44.7486 13.2719 44.7486 10.5197 44.7486ZM44.5832 73.007C44.5832 63.5625 44.5832 54.1781 44.5832 44.7637C42.0266 44.7637 39.5301 44.7336 37.0336 44.7787C36.1162 44.7938 35.5297 44.508 35.0635 43.6959C34.1912 42.192 33.2287 40.7332 32.3113 39.2594C32.1459 39.0037 31.9805 38.748 31.7248 38.3721C31.7248 50.0273 31.7248 61.5021 31.7248 73.007C36.0109 73.007 40.267 73.007 44.5832 73.007ZM66.9914 44.8088C62.6601 44.8088 58.374 44.8088 54.118 44.8088C54.118 54.2383 54.118 63.6227 54.118 72.992C58.4342 72.992 62.6902 72.992 66.9914 72.992C66.9914 63.5926 66.9914 54.2232 66.9914 44.8088ZM32.6572 35.3342C32.8226 35.6199 32.9129 35.8004 33.0332 35.9809C34.2514 37.9359 35.4846 39.876 36.6877 41.8461C36.9584 42.2822 37.2441 42.4176 37.7404 42.4176C48.8844 42.4025 60.0133 42.4025 71.1572 42.4025C71.3828 42.4025 71.6234 42.3875 71.9392 42.3574C70.5557 40.1467 69.2172 38.0412 67.9238 35.9057C67.6381 35.4395 67.3373 35.3041 66.8109 35.3041C55.6971 35.3191 44.5832 35.3191 33.4693 35.3191C33.2437 35.3342 33.0031 35.3342 32.6572 35.3342ZM47.0496 44.7938C47.0496 54.2232 47.0496 63.6076 47.0496 72.977C48.6287 72.977 50.1627 72.977 51.6816 72.977C51.6816 63.5475 51.6816 54.1932 51.6816 44.7938C50.1326 44.7938 48.6137 44.7938 47.0496 44.7938ZM28.3711 35.3342C22.2502 35.3342 16.2797 35.3342 10.3242 35.3492C10.0986 35.3492 9.81289 35.5898 9.67753 35.7854C8.51953 37.575 7.40664 39.3947 6.27871 41.1994C6.05312 41.5603 5.82753 41.9363 5.54179 42.3875C5.94785 42.3875 6.20351 42.3875 6.47421 42.3875C11.2115 42.3875 15.9488 42.3875 20.6711 42.3875C21.7539 42.3875 23.0322 42.7334 23.8443 42.2672C24.6865 41.7859 25.1076 40.5227 25.6941 39.6053C26.5814 38.2217 27.4387 36.8381 28.3711 35.3342Z" fill="#585858"/>
<path d="M20.4756 24.2803C20.7764 23.5434 20.9869 22.7614 21.3779 22.0696C22.0697 20.8214 21.7389 19.7987 20.4004 19.3325C17.5881 18.37 16.6105 15.693 18.1596 13.1364C18.8514 12.0085 18.5355 11.0309 17.3174 10.5196C16.5053 10.1737 16.1744 9.58717 16.4301 8.92545C16.7008 8.24869 17.3174 8.02311 18.1596 8.30885C20.4906 9.10592 21.5434 11.7829 20.3853 13.9635C20.2951 14.129 20.1748 14.2944 20.0846 14.4598C19.4228 15.5577 19.7988 16.6255 21.017 17.0465C23.9496 18.0692 24.9121 20.671 23.333 23.3028C22.6713 24.4157 23.0021 25.3932 24.2353 25.8895C25.0174 26.2053 25.3332 26.7618 25.0926 27.4235C24.8519 28.1153 24.2203 28.3559 23.4082 28.0852C21.7689 27.5889 20.641 26.0549 20.4756 24.2803Z" fill="#BF0067"/>
<path d="M58.765 9.67747C58.5846 9.84289 58.3139 10.264 57.9228 10.4595C56.5393 11.1212 56.2535 11.9634 57.0506 13.2868C58.4793 15.6329 57.4717 18.4302 54.8549 19.3025C53.366 19.7988 52.99 20.8064 53.8172 22.1448C55.2459 24.4909 54.2082 27.3935 51.6516 28.1605C50.8846 28.3861 50.268 28.1304 50.0424 27.4536C49.8168 26.822 50.1326 26.2505 50.8545 25.9497C52.1779 25.4083 52.4937 24.4609 51.7568 23.2728C50.2379 20.7913 51.2455 18.0392 53.9826 17.1218C55.3812 16.6556 55.7422 15.6329 54.9451 14.3697C53.5014 12.0236 54.509 9.09094 57.0355 8.30891C57.998 7.99309 58.7951 8.50442 58.765 9.67747Z" fill="#BF0067"/>
<path d="M39.5 19.6333C39.515 18.3249 38.748 17.0466 37.6803 15.8435C35.6049 13.5275 35.0785 10.8204 36.1312 7.90287C36.4922 6.91029 37.1689 6.03803 37.8156 5.1808C38.2818 4.54916 39.0488 4.51908 39.5602 4.98529C40.0715 5.4515 40.0564 6.12826 39.5451 6.7599C37.4096 9.33158 37.4547 12.0837 39.6955 14.5652C42.5529 17.7384 42.6281 22.19 39.876 25.2579C39.2293 25.9798 38.5225 26.1001 37.966 25.6038C37.4246 25.1076 37.4697 24.4308 38.0863 23.724C39.0187 22.6562 39.515 21.4079 39.5 19.6333Z" fill="#BF0067"/>
<path d="M24.6113 9.39163C24.6264 7.43655 26.2355 5.84241 28.1906 5.87249C30.1156 5.90257 31.6797 7.49671 31.6797 9.42171C31.6646 11.3768 30.0555 12.9559 28.1004 12.9408C26.1754 12.9108 24.5963 11.3016 24.6113 9.39163ZM29.3185 9.43675C29.3336 8.80511 28.8222 8.2637 28.1906 8.23362C27.5289 8.20354 26.9724 8.74495 26.9724 9.40667C26.9724 10.0383 27.4988 10.5647 28.1305 10.5797C28.7621 10.5797 29.3035 10.0684 29.3185 9.43675Z" fill="#BF0067"/>
<path d="M47.0195 5.87266C48.9746 5.8877 50.5537 7.51192 50.5236 9.467C50.4935 11.392 48.8994 12.941 46.9594 12.941C45.0494 12.941 43.4553 11.3318 43.4553 9.42188C43.4703 7.45177 45.0644 5.85763 47.0195 5.87266ZM47.0195 10.5799C47.6512 10.5649 48.1775 10.0234 48.1625 9.3918C48.1625 8.76016 47.6361 8.2338 47.0045 8.2338C46.3428 8.2338 45.8014 8.79024 45.8164 9.45196C45.8465 10.0836 46.3879 10.5949 47.0195 10.5799Z" fill="#BF0067"/>
<path d="M13.9938 14.0839C14.0088 16.039 12.4146 17.6482 10.4596 17.6482C8.54961 17.6482 6.94043 16.0691 6.94043 14.1441C6.94043 12.189 8.51953 10.5798 10.4746 10.5798C12.3996 10.5949 13.9787 12.1589 13.9938 14.0839ZM11.6477 14.1291C11.6627 13.4974 11.1363 12.956 10.5047 12.941C9.84297 12.9259 9.28652 13.4673 9.30156 14.1291C9.3166 14.7607 9.84297 15.2871 10.4746 15.2871C11.1062 15.2871 11.6326 14.7607 11.6477 14.1291Z" fill="#BF0067"/>
<path d="M61.1412 14.0688C61.1713 12.1138 62.7955 10.5497 64.7506 10.5798C66.6756 10.6249 68.2246 12.2341 68.1945 14.1591C68.1644 16.1141 66.5402 17.6782 64.5851 17.6481C62.6752 17.6181 61.1111 15.9938 61.1412 14.0688ZM64.6754 12.9409C64.0437 12.9409 63.5174 13.4673 63.5023 14.0989C63.4873 14.7606 64.0588 15.3171 64.7205 15.287C65.3521 15.272 65.8635 14.7306 65.8484 14.0989C65.8334 13.4673 65.307 12.9409 64.6754 12.9409Z" fill="#BF0067"/>
<path d="M58.7951 27.9198C58.9154 23.6938 62.5549 20.0845 66.7809 20.0243C67.6381 20.0093 68.1795 20.4454 68.2096 21.1522C68.2396 21.8591 67.7133 22.3253 66.856 22.3704C63.6828 22.5509 61.3217 24.897 61.1562 28.01C61.1111 28.9274 60.6449 29.4538 59.923 29.4237C59.1711 29.3936 58.765 28.8372 58.7951 27.9198Z" fill="#BF0067"/>
<path d="M16.3549 27.9952C16.3699 28.8524 15.9338 29.4088 15.2269 29.4389C14.5201 29.469 14.0539 28.9577 13.9937 28.0854C13.7982 24.867 11.4972 22.5661 8.27889 22.3705C7.42166 22.3254 6.91033 21.8592 6.92537 21.1373C6.95545 20.4305 7.49686 19.9944 8.35408 20.0094C12.6252 20.0846 16.2947 23.7391 16.3549 27.9952Z" fill="#BF0067"/>
<path d="M32.8828 25.619C32.8828 26.5063 32.4467 27.0176 31.8 27.0627C31.1533 27.1078 30.657 26.6717 30.5217 25.9047C30.2059 24.1752 29.9201 22.4457 29.6193 20.7012C29.5291 20.1448 29.3937 19.6034 29.3486 19.0319C29.2885 18.3852 29.6193 17.9491 30.251 17.7836C30.8676 17.6332 31.4992 17.9491 31.6195 18.5807C32.0707 21.002 32.4768 23.4082 32.8828 25.619Z" fill="#BF0067"/>
<path d="M44.6283 25.6039C45.0193 23.3932 45.4254 21.0321 45.8615 18.686C45.9818 18.0242 46.6135 17.6783 47.2602 17.8137C47.8918 17.949 48.2678 18.5356 48.1475 19.2875C47.8016 21.3028 47.4256 23.333 47.0646 25.3483C47.0195 25.619 46.9895 25.8897 46.9143 26.1453C46.7338 26.792 46.2074 27.168 45.6209 27.0928C44.9893 26.9725 44.5832 26.4612 44.6283 25.6039Z" fill="#BF0067"/>
</svg>
