<svg width="82" height="82" viewBox="0 0 82 82" fill="none" xmlns="http://www.w3.org/2000/svg">
<g clip-path="url(#clip0_1002_2488)">
<path d="M44.4273 2.38638C45.8527 2.57856 47.2941 2.72271 48.7035 2.97896C57.3039 4.48442 64.527 8.53638 70.3727 14.9747C75.4656 20.5961 78.6848 27.1786 79.6777 34.6899C81.4395 48.0309 77.3875 59.402 67.5219 68.627C67.2977 68.8352 67.0734 69.0434 66.7211 69.3637C67.7301 69.4919 68.6109 69.604 69.5398 69.7161C69.4598 70.4848 69.3797 71.2055 69.2836 72.0063C68.1305 71.8782 67.0254 71.7661 65.9203 71.654C64.8152 71.5258 63.7102 71.3977 62.477 71.2696C62.7172 69.0114 62.9574 66.7852 63.2137 64.4629C63.9984 64.543 64.7031 64.6071 65.5199 64.6872C65.4398 65.584 65.3598 66.4489 65.2637 67.4739C68.0504 65.1036 70.2766 62.493 72.1984 59.4981C70.8371 58.6973 69.5078 57.9125 68.1144 57.0797C68.5148 56.4071 68.8832 55.7504 69.2836 55.0618C70.6449 55.8625 71.9742 56.6473 73.3836 57.4641C76.0902 52.4833 77.5316 47.2301 77.7559 41.5446C76.1703 41.5446 74.6328 41.5446 73.0473 41.5446C73.0473 40.7438 73.0473 40.0231 73.0473 39.2383C74.5687 39.2383 76.1063 39.2383 77.7559 39.2383C77.5637 33.5688 76.1383 28.3477 73.4316 23.3348C72.0703 24.1356 70.725 24.9204 69.3156 25.7372C68.9152 25.0805 68.5469 24.4559 68.1305 23.7352C69.4918 22.9344 70.8211 22.1336 72.1664 21.3329C70.8852 18.3379 64.4789 11.8997 61.2277 10.3461C60.443 11.6594 59.6582 12.9887 58.8254 14.3821C58.1527 13.9817 57.5121 13.6133 56.8234 13.1969C57.6402 11.8196 58.409 10.4903 59.2418 9.09692C54.293 6.39028 49.0398 4.94888 43.3383 4.74067C43.3383 6.34224 43.3383 7.87974 43.3383 9.46528C42.5375 9.46528 41.8008 9.46528 40.968 9.46528C40.968 7.92778 40.968 6.37427 40.968 4.75669C35.2824 4.93286 30.0773 6.39028 25.0965 9.06489C25.8973 10.4262 26.666 11.7555 27.4988 13.1809C26.8582 13.5653 26.2176 13.9336 25.4969 14.3661C24.6801 12.9727 23.8793 11.6434 23.0625 10.2661C18.5781 13.1168 14.9586 16.7524 12.0598 21.2368C13.4211 22.0536 14.7664 22.8383 16.1598 23.6711C15.7594 24.3598 15.375 25.0165 14.9746 25.6891C13.5973 24.8723 12.268 24.0875 10.8586 23.2708C8.13594 28.2516 6.71055 33.5047 6.48633 39.1903C8.08789 39.1903 9.62539 39.1903 11.2109 39.1903C11.2109 39.9911 11.2109 40.6958 11.2109 41.4805C8.87266 41.4805 6.55039 41.4805 4.16406 41.4805C4.14805 41.2723 4.11602 41.0481 4.11602 40.8239C3.95586 23.1747 15.7914 7.79966 32.8641 3.52349C34.9141 3.01099 37.0602 2.83481 39.1582 2.49849C39.3824 2.46646 39.6066 2.40239 39.8148 2.37036C41.3684 2.38638 42.8898 2.38638 44.4273 2.38638Z" fill="#BF0067"/>
<path d="M60.6832 39.2223C60.6832 40.0391 60.6832 40.7438 60.6832 41.5446C60.3949 41.5446 60.1227 41.5446 59.8504 41.5446C55.7344 41.5446 51.6344 41.5606 47.5184 41.5286C46.9898 41.5286 46.7336 41.6567 46.5254 42.1852C45.7566 44.1711 43.6586 45.3883 41.6086 45.1321C39.4785 44.8598 37.7168 43.2102 37.4125 41.2083C37.0762 38.95 38.1813 36.852 40.2473 36.0192C40.8398 35.779 40.952 35.4747 40.952 34.8981C40.9359 28.5079 40.9359 22.1176 40.9359 15.7274C40.9359 15.4231 40.9359 15.1348 40.9359 14.7825C41.7207 14.7825 42.4574 14.7825 43.3063 14.7825C43.3063 15.0547 43.3063 15.359 43.3063 15.6473C43.3063 22.0696 43.3063 28.4758 43.2902 34.8981C43.2902 35.4586 43.3863 35.795 43.9949 36.0192C45.2121 36.4836 46.093 37.3805 46.5254 38.5977C46.7176 39.1583 47.0219 39.2383 47.5184 39.2383C51.6023 39.2223 55.6863 39.2223 59.7703 39.2223C60.0586 39.2223 60.3309 39.2223 60.6832 39.2223ZM44.5715 40.3594C44.5715 39.0301 43.4984 37.9571 42.1531 37.9411C40.7918 37.925 39.6867 39.0301 39.6867 40.3915C39.6867 41.7208 40.7758 42.8098 42.1051 42.8258C43.4664 42.8418 44.5875 41.7208 44.5715 40.3594Z" fill="#585858"/>
<path d="M32.1113 71.1413C32.1113 69.2835 32.1754 67.5058 32.0953 65.744C32.0473 64.5909 32.3836 63.694 33.1043 62.7812C37.925 56.6792 42.7137 50.5292 47.4703 44.3632C47.9988 43.6745 48.5273 43.3382 49.4082 43.4022C50.7695 43.4823 52.1309 43.4183 53.5883 43.4183C53.5883 50.305 53.5883 57.1116 53.5883 64.0144C55.0777 64.0144 56.4871 64.0144 57.9285 64.0144C57.9285 66.4007 57.9285 68.7069 57.9285 71.1093C56.5352 71.1093 55.1258 71.1093 53.6523 71.1093C53.6523 73.3995 53.6523 75.5937 53.6523 77.8519C50.9937 77.8519 48.4152 77.8519 45.7406 77.8519C45.7406 75.6577 45.7406 73.4476 45.7406 71.1573C41.1281 71.1413 36.6598 71.1413 32.1113 71.1413ZM46.6055 55.3339C44.3312 58.2968 42.1691 61.0995 39.975 63.9823C42.2812 63.9823 44.4434 63.9823 46.6055 63.9823C46.6055 61.1315 46.6055 58.3288 46.6055 55.3339Z" fill="#585858"/>
<path d="M15.9035 64.5109C20.2598 64.5109 24.616 64.5109 29.0363 64.5109C29.0363 66.8812 29.0363 69.2035 29.0363 71.5738C20.9004 71.5738 12.7805 71.5738 4.54843 71.5738C4.54843 71.0453 4.5164 70.5008 4.54843 69.9562C4.7246 67.3136 5.26913 64.7832 7.03085 62.6691C8.48828 60.9234 10.3461 59.7062 12.3 58.6011C14.1258 57.5601 15.9676 56.5511 17.7934 55.4941C18.1617 55.2859 18.498 54.9976 18.8504 54.7414C20.7562 53.3801 19.9394 50.7855 18.1777 50.1609C16.0957 49.4242 14.1098 49.7125 12.332 50.9937C11.3711 51.6824 10.5223 52.5312 9.52929 53.364C7.91171 51.5062 6.2621 49.5843 4.58046 47.6465C5.42929 46.5894 6.51835 45.9008 7.67148 45.3242C12.268 42.9859 17.1047 42.2652 22.1336 43.4824C26.0894 44.4433 28.4758 47.4062 28.5398 51.234C28.6039 54.4851 27.0824 56.9355 24.4559 58.6972C22.1336 60.2347 19.7312 61.6441 17.3609 63.1336C16.8164 63.4859 16.3199 63.9183 15.7914 64.3027C15.8555 64.3828 15.8715 64.4468 15.9035 64.5109Z" fill="#585858"/>
<path d="M35.0422 77.772C35.5066 78.5727 35.9551 79.3415 36.4035 80.1102C35.2184 80.5106 34.7859 80.3665 34.2094 79.3895C34.0973 79.1974 33.9531 79.0052 33.857 78.797C33.6008 78.1723 33.1844 77.8841 32.3836 78.1403C32.3836 78.4286 32.3836 78.7809 32.3836 79.1173C32.3836 79.4696 32.3836 79.822 32.3836 80.2063C31.8551 80.2063 31.3746 80.2063 30.8621 80.2063C30.8621 77.9481 30.8621 75.738 30.8621 73.4798C32.0312 73.4798 33.1844 73.3677 34.3055 73.5118C35.9391 73.72 36.6598 75.9302 35.5707 77.2274C35.4266 77.4036 35.2504 77.5477 35.0422 77.772ZM32.4156 76.7309C33.1203 76.5227 33.9211 77.0513 34.3375 76.2505C34.4816 75.9782 34.4656 75.3056 34.3055 75.2255C33.7449 74.9532 33.1043 74.8571 32.4156 74.6649C32.4156 75.4817 32.4156 76.0423 32.4156 76.7309Z" fill="#585858"/>
<path d="M19.8113 76.8589C19.8113 78.7648 18.2578 80.3343 16.416 80.3183C14.5582 80.3023 13.0527 78.7327 13.0687 76.8109C13.0848 74.937 14.5742 73.4316 16.432 73.3995C18.2738 73.3835 19.8113 74.937 19.8113 76.8589ZM14.6543 76.8429C14.6383 78.0281 15.391 78.9089 16.4 78.9249C17.409 78.9409 18.1777 78.0601 18.2098 76.8909C18.2418 75.7218 17.4891 74.8409 16.448 74.8409C15.407 74.8089 14.6703 75.6257 14.6543 76.8429Z" fill="#585858"/>
<path d="M4.85272 73.4797C5.36522 73.4797 5.81366 73.4797 6.34218 73.4797C6.34218 74.3125 6.34218 75.1293 6.34218 76.0102C7.2871 76.0102 8.15194 76.0102 9.09686 76.0102C9.09686 75.1774 9.09686 74.3446 9.09686 73.4797C9.64139 73.4797 10.1058 73.4797 10.6664 73.4797C10.6664 74.6168 10.6664 75.7219 10.6664 76.827C10.6664 77.9321 10.6664 79.0532 10.6664 80.2063C10.1219 80.2063 9.64139 80.2063 9.11288 80.2063C9.11288 79.2934 9.11288 78.4125 9.11288 77.4997C8.19999 77.4997 7.35116 77.4997 6.39022 77.4997C6.39022 78.3805 6.39022 79.2774 6.39022 80.2063C5.81366 80.2063 5.34921 80.2063 4.85272 80.2063C4.85272 77.9801 4.85272 75.77 4.85272 73.4797Z" fill="#585858"/>
<path d="M22.0695 73.4956C22.6461 73.4956 23.1105 73.4956 23.6711 73.4956C23.6711 74.5526 23.639 75.5616 23.6871 76.5546C23.7031 77.0831 23.7031 77.6757 23.9594 78.0921C24.1676 78.4605 24.6961 78.7808 25.1285 78.8608C25.673 78.9729 26.1855 78.6366 26.3297 78.044C26.4578 77.5315 26.5539 77.003 26.5699 76.4905C26.6019 75.5136 26.5859 74.5206 26.5859 73.4956C27.1144 73.4956 27.5789 73.4956 28.2035 73.4956C28.1394 75.0331 28.1875 76.5866 27.9633 78.0921C27.7551 79.5495 26.5379 80.3503 25.0484 80.3183C23.5109 80.2702 22.4539 79.3733 22.1976 77.8839C22.1336 77.5155 22.0855 77.1312 22.0855 76.7468C22.0695 75.6897 22.0695 74.6327 22.0695 73.4956Z" fill="#585858"/>
<path d="M38.8219 78.2843C39.6387 78.5085 40.3434 78.7647 41.048 78.8768C41.3203 78.9249 41.6566 78.6526 41.9609 78.5405C41.7527 78.3003 41.5926 77.964 41.3203 77.8198C40.8559 77.5796 40.3113 77.4835 39.8148 77.2913C38.8859 76.9229 38.4535 76.3143 38.5016 75.4655C38.5496 74.5686 39.2062 73.7679 40.0711 73.5276C41.1602 73.2393 42.4094 73.4636 43.4344 74.2003C43.2262 74.5847 43.018 74.969 42.8578 75.2893C42.1691 75.1132 41.5766 74.905 40.952 74.8409C40.7117 74.8089 40.4234 75.0972 40.1512 75.2413C40.3434 75.4815 40.4715 75.8018 40.7277 75.914C41.2082 76.1382 41.7367 76.2343 42.2332 76.4104C43.3223 76.8108 43.7547 77.4675 43.6426 78.5405C43.5465 79.4534 42.9219 80.046 41.8809 80.2382C40.5996 80.4784 39.4305 80.1741 38.2293 79.5015C38.4535 79.053 38.6457 78.6366 38.8219 78.2843Z" fill="#585858"/>
</g>
<defs>
<clipPath id="clip0_1002_2488">
<rect width="82" height="82" fill="white"/>
</clipPath>
</defs>
</svg>
